<?xml version="1.0" encoding="utf-8"?>
<svg xmlns="http://www.w3.org/2000/svg" xmlns:xlink="http://www.w3.org/1999/xlink" width="600" height="400" viewBox="0 0 2400 1600">
<defs>
  <clipPath id="clip660">
    <rect x="0" y="0" width="2400" height="1600"/>
  </clipPath>
</defs>
<defs>
  <clipPath id="clip661">
    <rect x="480" y="0" width="1681" height="1600"/>
  </clipPath>
</defs>
<defs>
  <clipPath id="clip662">
    <rect x="218" y="47" width="2135" height="1377"/>
  </clipPath>
</defs>
<polyline clip-path="url(#clip662)" style="stroke:#000000; stroke-linecap:round; stroke-linejoin:round; stroke-width:2; stroke-opacity:0.1; fill:none" points="218.568,1423.18 218.568,47.2441 "/>
<polyline clip-path="url(#clip662)" style="stroke:#000000; stroke-linecap:round; stroke-linejoin:round; stroke-width:2; stroke-opacity:0.1; fill:none" points="645.406,1423.18 645.406,47.2441 "/>
<polyline clip-path="url(#clip662)" style="stroke:#000000; stroke-linecap:round; stroke-linejoin:round; stroke-width:2; stroke-opacity:0.1; fill:none" points="1072.24,1423.18 1072.24,47.2441 "/>
<polyline clip-path="url(#clip662)" style="stroke:#000000; stroke-linecap:round; stroke-linejoin:round; stroke-width:2; stroke-opacity:0.1; fill:none" points="1499.08,1423.18 1499.08,47.2441 "/>
<polyline clip-path="url(#clip662)" style="stroke:#000000; stroke-linecap:round; stroke-linejoin:round; stroke-width:2; stroke-opacity:0.1; fill:none" points="1925.92,1423.18 1925.92,47.2441 "/>
<polyline clip-path="url(#clip662)" style="stroke:#000000; stroke-linecap:round; stroke-linejoin:round; stroke-width:2; stroke-opacity:0.1; fill:none" points="2352.76,1423.18 2352.76,47.2441 "/>
<polyline clip-path="url(#clip662)" style="stroke:#000000; stroke-linecap:round; stroke-linejoin:round; stroke-width:2; stroke-opacity:0.1; fill:none" points="218.568,1423.18 2352.76,1423.18 "/>
<polyline clip-path="url(#clip662)" style="stroke:#000000; stroke-linecap:round; stroke-linejoin:round; stroke-width:2; stroke-opacity:0.1; fill:none" points="218.568,1147.99 2352.76,1147.99 "/>
<polyline clip-path="url(#clip662)" style="stroke:#000000; stroke-linecap:round; stroke-linejoin:round; stroke-width:2; stroke-opacity:0.1; fill:none" points="218.568,872.806 2352.76,872.806 "/>
<polyline clip-path="url(#clip662)" style="stroke:#000000; stroke-linecap:round; stroke-linejoin:round; stroke-width:2; stroke-opacity:0.1; fill:none" points="218.568,597.618 2352.76,597.618 "/>
<polyline clip-path="url(#clip662)" style="stroke:#000000; stroke-linecap:round; stroke-linejoin:round; stroke-width:2; stroke-opacity:0.1; fill:none" points="218.568,322.431 2352.76,322.431 "/>
<polyline clip-path="url(#clip662)" style="stroke:#000000; stroke-linecap:round; stroke-linejoin:round; stroke-width:2; stroke-opacity:0.1; fill:none" points="218.568,47.2441 2352.76,47.2441 "/>
<polyline clip-path="url(#clip660)" style="stroke:#000000; stroke-linecap:round; stroke-linejoin:round; stroke-width:4; stroke-opacity:1; fill:none" points="218.568,1423.18 2352.76,1423.18 "/>
<polyline clip-path="url(#clip660)" style="stroke:#000000; stroke-linecap:round; stroke-linejoin:round; stroke-width:4; stroke-opacity:1; fill:none" points="218.568,1423.18 218.568,1404.28 "/>
<polyline clip-path="url(#clip660)" style="stroke:#000000; stroke-linecap:round; stroke-linejoin:round; stroke-width:4; stroke-opacity:1; fill:none" points="645.406,1423.18 645.406,1404.28 "/>
<polyline clip-path="url(#clip660)" style="stroke:#000000; stroke-linecap:round; stroke-linejoin:round; stroke-width:4; stroke-opacity:1; fill:none" points="1072.24,1423.18 1072.24,1404.28 "/>
<polyline clip-path="url(#clip660)" style="stroke:#000000; stroke-linecap:round; stroke-linejoin:round; stroke-width:4; stroke-opacity:1; fill:none" points="1499.08,1423.18 1499.08,1404.28 "/>
<polyline clip-path="url(#clip660)" style="stroke:#000000; stroke-linecap:round; stroke-linejoin:round; stroke-width:4; stroke-opacity:1; fill:none" points="1925.92,1423.18 1925.92,1404.28 "/>
<polyline clip-path="url(#clip660)" style="stroke:#000000; stroke-linecap:round; stroke-linejoin:round; stroke-width:4; stroke-opacity:1; fill:none" points="2352.76,1423.18 2352.76,1404.28 "/>
<path clip-path="url(#clip660)" d="M218.594 1451.43 Q223.415 1451.43 225.901 1455.79 Q228.439 1460.15 228.439 1468.83 Q228.439 1477.41 225.901 1481.77 Q223.415 1486.09 218.594 1486.09 Q213.722 1486.09 211.184 1481.72 Q208.698 1477.31 208.698 1468.73 Q208.698 1460.15 211.184 1455.79 Q213.722 1451.43 218.594 1451.43 M218.594 1452.49 Q214.331 1452.49 212.098 1456.55 Q209.865 1460.61 209.865 1468.73 Q209.865 1476.85 212.047 1480.96 Q214.28 1485.02 218.594 1485.02 Q222.907 1485.02 225.089 1481.01 Q227.272 1476.95 227.272 1468.83 Q227.272 1452.49 218.594 1452.49 Z" fill="#000000" fill-rule="nonzero" fill-opacity="1" /><path clip-path="url(#clip660)" d="M631.957 1451.43 Q635.916 1451.43 638.199 1453.81 Q640.534 1456.2 640.534 1459.9 Q640.534 1463.35 639.164 1466.3 Q637.793 1469.19 634.85 1472.74 Q631.907 1476.29 624.548 1484.46 L641.295 1484.46 L641.092 1485.58 L623.127 1485.58 L623.127 1484.51 Q630.536 1476.39 633.632 1472.64 Q636.728 1468.83 638.047 1466.04 Q639.367 1463.2 639.367 1460 Q639.367 1456.6 637.337 1454.57 Q635.357 1452.49 631.957 1452.49 Q629.369 1452.49 627.39 1453.56 Q625.461 1454.57 623.787 1456.55 L622.924 1455.99 Q624.852 1453.66 626.984 1452.54 Q629.166 1451.43 631.957 1451.43 Z" fill="#000000" fill-rule="nonzero" fill-opacity="1" /><path clip-path="url(#clip660)" d="M658.042 1451.43 Q662.863 1451.43 665.35 1455.79 Q667.887 1460.15 667.887 1468.83 Q667.887 1477.41 665.35 1481.77 Q662.863 1486.09 658.042 1486.09 Q653.17 1486.09 650.633 1481.72 Q648.146 1477.31 648.146 1468.73 Q648.146 1460.15 650.633 1455.79 Q653.17 1451.43 658.042 1451.43 M658.042 1452.49 Q653.779 1452.49 651.546 1456.55 Q649.313 1460.61 649.313 1468.73 Q649.313 1476.85 651.496 1480.96 Q653.729 1485.02 658.042 1485.02 Q662.356 1485.02 664.538 1481.01 Q666.72 1476.95 666.72 1468.83 Q666.72 1452.49 658.042 1452.49 Z" fill="#000000" fill-rule="nonzero" fill-opacity="1" /><path clip-path="url(#clip660)" d="M1069.88 1475.07 L1069.88 1476.09 L1065.16 1476.09 L1065.16 1485.58 L1064.05 1485.58 L1064.05 1476.09 L1048.97 1476.09 L1048.97 1475.18 L1059.43 1451.43 L1060.39 1451.83 L1050.19 1475.07 L1064.05 1475.07 L1064.2 1464.37 L1065.16 1464.37 L1065.16 1475.07 L1069.88 1475.07 Z" fill="#000000" fill-rule="nonzero" fill-opacity="1" /><path clip-path="url(#clip660)" d="M1085.67 1451.43 Q1090.49 1451.43 1092.97 1455.79 Q1095.51 1460.15 1095.51 1468.83 Q1095.51 1477.41 1092.97 1481.77 Q1090.49 1486.09 1085.67 1486.09 Q1080.79 1486.09 1078.26 1481.72 Q1075.77 1477.31 1075.77 1468.73 Q1075.77 1460.15 1078.26 1455.79 Q1080.79 1451.43 1085.67 1451.43 M1085.67 1452.49 Q1081.4 1452.49 1079.17 1456.55 Q1076.94 1460.61 1076.94 1468.73 Q1076.94 1476.85 1079.12 1480.96 Q1081.35 1485.02 1085.67 1485.02 Q1089.98 1485.02 1092.16 1481.01 Q1094.34 1476.95 1094.34 1468.83 Q1094.34 1452.49 1085.67 1452.49 Z" fill="#000000" fill-rule="nonzero" fill-opacity="1" /><path clip-path="url(#clip660)" d="M1486.7 1463.91 Q1490.5 1463.91 1492.84 1466.6 Q1495.22 1469.24 1495.22 1474.31 Q1495.22 1479.79 1492.79 1482.94 Q1490.35 1486.09 1486.24 1486.09 Q1481.06 1486.09 1478.63 1481.93 Q1476.19 1477.71 1476.19 1470.96 Q1476.19 1464.98 1477.56 1460.61 Q1478.93 1456.2 1481.52 1453.81 Q1484.11 1451.43 1487.71 1451.43 Q1489.39 1451.43 1490.71 1451.93 Q1492.03 1452.39 1493.24 1453.3 L1492.58 1454.17 Q1491.52 1453.3 1490.3 1452.9 Q1489.13 1452.49 1487.66 1452.49 Q1484.47 1452.49 1482.18 1454.72 Q1479.9 1456.96 1478.68 1460.92 Q1477.46 1464.82 1477.36 1469.85 Q1481.12 1463.91 1486.7 1463.91 M1486.24 1485.02 Q1490 1485.02 1492.03 1482.13 Q1494.11 1479.19 1494.11 1474.36 Q1494.11 1469.75 1492.08 1467.36 Q1490.05 1464.98 1486.65 1464.98 Q1483.7 1464.98 1481.37 1466.75 Q1479.03 1468.48 1477.36 1471.47 Q1477.46 1477.71 1479.59 1481.37 Q1481.78 1485.02 1486.24 1485.02 Z" fill="#000000" fill-rule="nonzero" fill-opacity="1" /><path clip-path="url(#clip660)" d="M1512.12 1451.43 Q1516.94 1451.43 1519.43 1455.79 Q1521.97 1460.15 1521.97 1468.83 Q1521.97 1477.41 1519.43 1481.77 Q1516.94 1486.09 1512.12 1486.09 Q1507.25 1486.09 1504.71 1481.72 Q1502.23 1477.31 1502.23 1468.73 Q1502.23 1460.15 1504.71 1455.79 Q1507.25 1451.43 1512.12 1451.43 M1512.12 1452.49 Q1507.86 1452.49 1505.63 1456.55 Q1503.39 1460.61 1503.39 1468.73 Q1503.39 1476.85 1505.58 1480.96 Q1507.81 1485.02 1512.12 1485.02 Q1516.44 1485.02 1518.62 1481.01 Q1520.8 1476.95 1520.8 1468.83 Q1520.8 1452.49 1512.12 1452.49 Z" fill="#000000" fill-rule="nonzero" fill-opacity="1" /><path clip-path="url(#clip660)" d="M1914.8 1468.07 Q1919.12 1469.75 1920.89 1471.73 Q1922.67 1473.7 1922.67 1477.1 Q1922.67 1481.22 1919.88 1483.65 Q1917.09 1486.09 1912.52 1486.09 Q1907.85 1486.09 1905.11 1483.6 Q1902.37 1481.11 1902.37 1477.05 Q1902.37 1470.2 1910.19 1467.21 Q1906.79 1465.79 1905.31 1464.06 Q1903.89 1462.34 1903.89 1459.55 Q1903.89 1457.11 1905.06 1455.28 Q1906.28 1453.41 1908.21 1452.44 Q1910.19 1451.43 1912.52 1451.43 Q1914.86 1451.43 1916.83 1452.39 Q1918.81 1453.3 1919.98 1455.18 Q1921.2 1457.01 1921.2 1459.6 Q1921.2 1462.39 1919.68 1464.37 Q1918.2 1466.3 1914.8 1468.07 M1905.06 1459.6 Q1905.06 1462.13 1906.43 1463.71 Q1907.8 1465.28 1911.45 1466.75 L1913.84 1467.67 Q1917.14 1465.99 1918.61 1464.16 Q1920.08 1462.29 1920.08 1459.65 Q1920.08 1456.25 1917.95 1454.37 Q1915.82 1452.49 1912.52 1452.49 Q1909.32 1452.49 1907.19 1454.42 Q1905.06 1456.3 1905.06 1459.6 M1912.52 1484.97 Q1916.58 1484.97 1919.02 1482.89 Q1921.5 1480.81 1921.5 1477.1 Q1921.5 1474.82 1920.64 1473.35 Q1919.83 1471.83 1918.1 1470.76 Q1916.43 1469.64 1913.43 1468.48 L1911.4 1467.72 Q1907.24 1469.24 1905.37 1471.47 Q1903.54 1473.65 1903.54 1477.05 Q1903.54 1480.81 1905.97 1482.89 Q1908.41 1484.97 1912.52 1484.97 Z" fill="#000000" fill-rule="nonzero" fill-opacity="1" /><path clip-path="url(#clip660)" d="M1939.62 1451.43 Q1944.44 1451.43 1946.93 1455.79 Q1949.47 1460.15 1949.47 1468.83 Q1949.47 1477.41 1946.93 1481.77 Q1944.44 1486.09 1939.62 1486.09 Q1934.75 1486.09 1932.21 1481.72 Q1929.72 1477.31 1929.72 1468.73 Q1929.72 1460.15 1932.21 1455.79 Q1934.75 1451.43 1939.62 1451.43 M1939.62 1452.49 Q1935.36 1452.49 1933.12 1456.55 Q1930.89 1460.61 1930.89 1468.73 Q1930.89 1476.85 1933.07 1480.96 Q1935.31 1485.02 1939.62 1485.02 Q1943.93 1485.02 1946.12 1481.01 Q1948.3 1476.95 1948.3 1468.83 Q1948.3 1452.49 1939.62 1452.49 Z" fill="#000000" fill-rule="nonzero" fill-opacity="1" /><path clip-path="url(#clip660)" d="M2329.11 1452.03 L2329.11 1485.58 L2327.99 1485.58 L2327.99 1453.35 L2319.16 1458.94 L2318.6 1458.07 L2328.19 1452.03 L2329.11 1452.03 Z" fill="#000000" fill-rule="nonzero" fill-opacity="1" /><path clip-path="url(#clip660)" d="M2349.61 1451.43 Q2354.43 1451.43 2356.92 1455.79 Q2359.45 1460.15 2359.45 1468.83 Q2359.45 1477.41 2356.92 1481.77 Q2354.43 1486.09 2349.61 1486.09 Q2344.74 1486.09 2342.2 1481.72 Q2339.71 1477.31 2339.71 1468.73 Q2339.71 1460.15 2342.2 1455.79 Q2344.74 1451.43 2349.61 1451.43 M2349.61 1452.49 Q2345.35 1452.49 2343.11 1456.55 Q2340.88 1460.61 2340.88 1468.73 Q2340.88 1476.85 2343.06 1480.96 Q2345.3 1485.02 2349.61 1485.02 Q2353.92 1485.02 2356.11 1481.01 Q2358.29 1476.95 2358.29 1468.83 Q2358.29 1452.49 2349.61 1452.49 Z" fill="#000000" fill-rule="nonzero" fill-opacity="1" /><path clip-path="url(#clip660)" d="M2377.06 1451.43 Q2381.89 1451.43 2384.37 1455.79 Q2386.91 1460.15 2386.91 1468.83 Q2386.91 1477.41 2384.37 1481.77 Q2381.89 1486.09 2377.06 1486.09 Q2372.19 1486.09 2369.66 1481.72 Q2367.17 1477.31 2367.17 1468.73 Q2367.17 1460.15 2369.66 1455.79 Q2372.19 1451.43 2377.06 1451.43 M2377.06 1452.49 Q2372.8 1452.49 2370.57 1456.55 Q2368.34 1460.61 2368.34 1468.73 Q2368.34 1476.85 2370.52 1480.96 Q2372.75 1485.02 2377.06 1485.02 Q2381.38 1485.02 2383.56 1481.01 Q2385.74 1476.95 2385.74 1468.83 Q2385.74 1452.49 2377.06 1452.49 Z" fill="#000000" fill-rule="nonzero" fill-opacity="1" /><path clip-path="url(#clip660)" d="M1299.84 1528.8 Q1299.84 1530.61 1298.71 1531.64 Q1297.58 1532.64 1296.29 1532.64 Q1295.07 1532.64 1294.42 1531.93 Q1293.78 1531.22 1293.78 1530.32 Q1293.78 1529.09 1294.68 1528.03 Q1295.58 1526.97 1296.94 1526.74 Q1295.62 1525.91 1293.65 1525.91 Q1292.36 1525.91 1291.24 1526.58 Q1290.14 1527.26 1289.47 1528.13 Q1288.82 1529 1288.24 1530.25 Q1287.69 1531.48 1287.47 1532.22 Q1287.28 1532.93 1287.11 1533.7 L1284.86 1542.72 Q1283.76 1547 1283.76 1548.51 Q1283.76 1550.38 1284.67 1551.64 Q1285.57 1552.86 1287.37 1552.86 Q1288.08 1552.86 1288.89 1552.67 Q1289.69 1552.44 1290.72 1551.86 Q1291.78 1551.25 1292.72 1550.35 Q1293.68 1549.42 1294.62 1547.84 Q1295.55 1546.26 1296.16 1544.23 Q1296.36 1543.52 1297 1543.52 Q1297.81 1543.52 1297.81 1544.17 Q1297.81 1544.71 1297.36 1545.87 Q1296.94 1547 1296 1548.48 Q1295.1 1549.93 1293.91 1551.25 Q1292.72 1552.54 1290.95 1553.44 Q1289.18 1554.34 1287.24 1554.34 Q1284.47 1554.34 1282.64 1552.86 Q1280.8 1551.38 1280.13 1549.32 Q1279.96 1549.61 1279.74 1550 Q1279.51 1550.38 1278.84 1551.25 Q1278.19 1552.09 1277.45 1552.73 Q1276.71 1553.34 1275.55 1553.83 Q1274.43 1554.34 1273.2 1554.34 Q1271.66 1554.34 1270.27 1553.89 Q1268.92 1553.44 1267.95 1552.41 Q1266.99 1551.38 1266.99 1549.96 Q1266.99 1548.38 1268.05 1547.29 Q1269.14 1546.16 1270.62 1546.16 Q1271.56 1546.16 1272.3 1546.71 Q1273.07 1547.26 1273.07 1548.45 Q1273.07 1549.77 1272.17 1550.77 Q1271.27 1551.77 1269.98 1552.02 Q1271.3 1552.86 1273.27 1552.86 Q1275.39 1552.86 1277.07 1550.99 Q1278.74 1549.13 1279.55 1546 Q1281.54 1538.5 1282.32 1535.15 Q1283.09 1531.77 1283.09 1530.32 Q1283.09 1528.96 1282.73 1528.03 Q1282.38 1527.1 1281.77 1526.68 Q1281.19 1526.23 1280.64 1526.07 Q1280.13 1525.91 1279.55 1525.91 Q1278.58 1525.91 1277.48 1526.29 Q1276.42 1526.68 1275.13 1527.58 Q1273.88 1528.45 1272.69 1530.25 Q1271.49 1532.06 1270.69 1534.54 Q1270.53 1535.28 1269.82 1535.28 Q1269.05 1535.24 1269.05 1534.6 Q1269.05 1534.05 1269.47 1532.93 Q1269.92 1531.77 1270.82 1530.32 Q1271.75 1528.87 1272.94 1527.58 Q1274.17 1526.26 1275.94 1525.36 Q1277.74 1524.46 1279.67 1524.46 Q1280.54 1524.46 1281.38 1524.65 Q1282.25 1524.81 1283.28 1525.29 Q1284.34 1525.78 1285.28 1526.84 Q1286.21 1527.9 1286.79 1529.45 Q1287.18 1528.71 1287.69 1528 Q1288.24 1527.29 1289.08 1526.42 Q1289.95 1525.52 1291.14 1525 Q1292.36 1524.46 1293.72 1524.46 Q1295.04 1524.46 1296.33 1524.81 Q1297.61 1525.13 1298.71 1526.19 Q1299.84 1527.23 1299.84 1528.8 Z" fill="#000000" fill-rule="nonzero" fill-opacity="1" /><polyline clip-path="url(#clip660)" style="stroke:#000000; stroke-linecap:round; stroke-linejoin:round; stroke-width:4; stroke-opacity:1; fill:none" points="218.568,1423.18 218.568,47.2441 "/>
<polyline clip-path="url(#clip660)" style="stroke:#000000; stroke-linecap:round; stroke-linejoin:round; stroke-width:4; stroke-opacity:1; fill:none" points="218.568,1423.18 237.466,1423.18 "/>
<polyline clip-path="url(#clip660)" style="stroke:#000000; stroke-linecap:round; stroke-linejoin:round; stroke-width:4; stroke-opacity:1; fill:none" points="218.568,1147.99 237.466,1147.99 "/>
<polyline clip-path="url(#clip660)" style="stroke:#000000; stroke-linecap:round; stroke-linejoin:round; stroke-width:4; stroke-opacity:1; fill:none" points="218.568,872.806 237.466,872.806 "/>
<polyline clip-path="url(#clip660)" style="stroke:#000000; stroke-linecap:round; stroke-linejoin:round; stroke-width:4; stroke-opacity:1; fill:none" points="218.568,597.618 237.466,597.618 "/>
<polyline clip-path="url(#clip660)" style="stroke:#000000; stroke-linecap:round; stroke-linejoin:round; stroke-width:4; stroke-opacity:1; fill:none" points="218.568,322.431 237.466,322.431 "/>
<polyline clip-path="url(#clip660)" style="stroke:#000000; stroke-linecap:round; stroke-linejoin:round; stroke-width:4; stroke-opacity:1; fill:none" points="218.568,47.2441 237.466,47.2441 "/>
<path clip-path="url(#clip660)" d="M172.723 1406.31 Q177.544 1406.31 180.031 1410.67 Q182.568 1415.03 182.568 1423.71 Q182.568 1432.29 180.031 1436.65 Q177.544 1440.97 172.723 1440.97 Q167.851 1440.97 165.314 1436.6 Q162.827 1432.19 162.827 1423.61 Q162.827 1415.03 165.314 1410.67 Q167.851 1406.31 172.723 1406.31 M172.723 1407.37 Q168.46 1407.37 166.227 1411.43 Q163.994 1415.49 163.994 1423.61 Q163.994 1431.73 166.176 1435.84 Q168.409 1439.9 172.723 1439.9 Q177.037 1439.9 179.219 1435.89 Q181.401 1431.83 181.401 1423.71 Q181.401 1407.37 172.723 1407.37 Z" fill="#000000" fill-rule="nonzero" fill-opacity="1" /><path clip-path="url(#clip660)" d="M146.638 1131.12 Q150.596 1131.12 152.88 1133.5 Q155.215 1135.89 155.215 1139.59 Q155.215 1143.04 153.844 1145.99 Q152.474 1148.88 149.531 1152.43 Q146.587 1155.99 139.229 1164.16 L155.976 1164.16 L155.773 1165.27 L137.808 1165.27 L137.808 1164.21 Q145.217 1156.09 148.313 1152.33 Q151.408 1148.53 152.728 1145.73 Q154.047 1142.89 154.047 1139.7 Q154.047 1136.3 152.017 1134.27 Q150.038 1132.18 146.638 1132.18 Q144.05 1132.18 142.071 1133.25 Q140.142 1134.27 138.467 1136.24 L137.605 1135.69 Q139.533 1133.35 141.665 1132.24 Q143.847 1131.12 146.638 1131.12 Z" fill="#000000" fill-rule="nonzero" fill-opacity="1" /><path clip-path="url(#clip660)" d="M172.723 1131.12 Q177.544 1131.12 180.031 1135.48 Q182.568 1139.85 182.568 1148.53 Q182.568 1157.1 180.031 1161.47 Q177.544 1165.78 172.723 1165.78 Q167.851 1165.78 165.314 1161.42 Q162.827 1157 162.827 1148.42 Q162.827 1139.85 165.314 1135.48 Q167.851 1131.12 172.723 1131.12 M172.723 1132.18 Q168.46 1132.18 166.227 1136.24 Q163.994 1140.3 163.994 1148.42 Q163.994 1156.54 166.176 1160.65 Q168.409 1164.71 172.723 1164.71 Q177.037 1164.71 179.219 1160.71 Q181.401 1156.65 181.401 1148.53 Q181.401 1132.18 172.723 1132.18 Z" fill="#000000" fill-rule="nonzero" fill-opacity="1" /><path clip-path="url(#clip660)" d="M156.94 879.581 L156.94 880.595 L152.22 880.595 L152.22 890.086 L151.104 890.086 L151.104 880.595 L136.031 880.595 L136.031 879.682 L146.486 855.932 L147.45 856.338 L137.249 879.581 L151.104 879.581 L151.256 868.873 L152.22 868.873 L152.22 879.581 L156.94 879.581 Z" fill="#000000" fill-rule="nonzero" fill-opacity="1" /><path clip-path="url(#clip660)" d="M172.723 855.932 Q177.544 855.932 180.031 860.296 Q182.568 864.66 182.568 873.338 Q182.568 881.915 180.031 886.279 Q177.544 890.593 172.723 890.593 Q167.851 890.593 165.314 886.229 Q162.827 881.813 162.827 873.237 Q162.827 864.66 165.314 860.296 Q167.851 855.932 172.723 855.932 M172.723 856.997 Q168.46 856.997 166.227 861.057 Q163.994 865.117 163.994 873.237 Q163.994 881.357 166.176 885.467 Q168.409 889.527 172.723 889.527 Q177.037 889.527 179.219 885.518 Q181.401 881.458 181.401 873.338 Q181.401 856.997 172.723 856.997 Z" fill="#000000" fill-rule="nonzero" fill-opacity="1" /><path clip-path="url(#clip660)" d="M147.298 593.229 Q151.104 593.229 153.438 595.918 Q155.824 598.557 155.824 603.632 Q155.824 609.113 153.388 612.259 Q150.952 615.406 146.841 615.406 Q141.665 615.406 139.229 611.244 Q136.793 607.032 136.793 600.283 Q136.793 594.294 138.163 589.93 Q139.533 585.515 142.121 583.13 Q144.709 580.744 148.313 580.744 Q149.987 580.744 151.307 581.252 Q152.626 581.709 153.844 582.622 L153.185 583.485 Q152.119 582.622 150.901 582.216 Q149.734 581.81 148.262 581.81 Q145.065 581.81 142.781 584.043 Q140.497 586.276 139.279 590.234 Q138.061 594.142 137.96 599.166 Q141.715 593.229 147.298 593.229 M146.841 614.34 Q150.596 614.34 152.626 611.447 Q154.707 608.504 154.707 603.683 Q154.707 599.065 152.677 596.68 Q150.647 594.294 147.247 594.294 Q144.304 594.294 141.969 596.071 Q139.635 597.796 137.96 600.79 Q138.061 607.032 140.193 610.686 Q142.375 614.34 146.841 614.34 Z" fill="#000000" fill-rule="nonzero" fill-opacity="1" /><path clip-path="url(#clip660)" d="M172.723 580.744 Q177.544 580.744 180.031 585.109 Q182.568 589.473 182.568 598.151 Q182.568 606.728 180.031 611.092 Q177.544 615.406 172.723 615.406 Q167.851 615.406 165.314 611.041 Q162.827 606.626 162.827 598.05 Q162.827 589.473 165.314 585.109 Q167.851 580.744 172.723 580.744 M172.723 581.81 Q168.46 581.81 166.227 585.87 Q163.994 589.93 163.994 598.05 Q163.994 606.17 166.176 610.28 Q168.409 614.34 172.723 614.34 Q177.037 614.34 179.219 610.331 Q181.401 606.271 181.401 598.151 Q181.401 581.81 172.723 581.81 Z" fill="#000000" fill-rule="nonzero" fill-opacity="1" /><path clip-path="url(#clip660)" d="M147.907 322.203 Q152.22 323.878 153.997 325.857 Q155.773 327.836 155.773 331.236 Q155.773 335.347 152.982 337.783 Q150.19 340.219 145.623 340.219 Q140.954 340.219 138.214 337.732 Q135.473 335.245 135.473 331.185 Q135.473 324.334 143.289 321.34 Q139.888 319.919 138.417 318.194 Q136.996 316.468 136.996 313.677 Q136.996 311.241 138.163 309.414 Q139.381 307.536 141.309 306.572 Q143.289 305.557 145.623 305.557 Q147.957 305.557 149.937 306.521 Q151.916 307.435 153.083 309.313 Q154.301 311.14 154.301 313.728 Q154.301 316.519 152.779 318.498 Q151.307 320.427 147.907 322.203 M138.163 313.728 Q138.163 316.265 139.533 317.838 Q140.903 319.412 144.557 320.883 L146.942 321.797 Q150.241 320.122 151.713 318.295 Q153.185 316.417 153.185 313.779 Q153.185 310.378 151.053 308.501 Q148.922 306.623 145.623 306.623 Q142.426 306.623 140.294 308.551 Q138.163 310.429 138.163 313.728 M145.623 339.102 Q149.683 339.102 152.119 337.022 Q154.606 334.941 154.606 331.236 Q154.606 328.952 153.743 327.481 Q152.931 325.958 151.205 324.893 Q149.531 323.776 146.536 322.609 L144.507 321.848 Q140.345 323.37 138.467 325.603 Q136.64 327.785 136.64 331.185 Q136.64 334.941 139.076 337.022 Q141.512 339.102 145.623 339.102 Z" fill="#000000" fill-rule="nonzero" fill-opacity="1" /><path clip-path="url(#clip660)" d="M172.723 305.557 Q177.544 305.557 180.031 309.922 Q182.568 314.286 182.568 322.964 Q182.568 331.541 180.031 335.905 Q177.544 340.219 172.723 340.219 Q167.851 340.219 165.314 335.854 Q162.827 331.439 162.827 322.863 Q162.827 314.286 165.314 309.922 Q167.851 305.557 172.723 305.557 M172.723 306.623 Q168.46 306.623 166.227 310.683 Q163.994 314.743 163.994 322.863 Q163.994 330.982 166.176 335.093 Q168.409 339.153 172.723 339.153 Q177.037 339.153 179.219 335.144 Q181.401 331.084 181.401 322.964 Q181.401 306.623 172.723 306.623 Z" fill="#000000" fill-rule="nonzero" fill-opacity="1" /><path clip-path="url(#clip660)" d="M124.765 30.9791 L124.765 64.5241 L123.649 64.5241 L123.649 32.2985 L114.818 37.8809 L114.26 37.0182 L123.852 30.9791 L124.765 30.9791 Z" fill="#000000" fill-rule="nonzero" fill-opacity="1" /><path clip-path="url(#clip660)" d="M145.268 30.3701 Q150.089 30.3701 152.576 34.7345 Q155.113 39.0989 155.113 47.777 Q155.113 56.3535 152.576 60.7179 Q150.089 65.0316 145.268 65.0316 Q140.396 65.0316 137.858 60.6672 Q135.372 56.252 135.372 47.6755 Q135.372 39.0989 137.858 34.7345 Q140.396 30.3701 145.268 30.3701 M145.268 31.4358 Q141.005 31.4358 138.772 35.4957 Q136.539 39.5556 136.539 47.6755 Q136.539 55.7953 138.721 59.9059 Q140.954 63.9659 145.268 63.9659 Q149.581 63.9659 151.764 59.9567 Q153.946 55.8968 153.946 47.777 Q153.946 31.4358 145.268 31.4358 Z" fill="#000000" fill-rule="nonzero" fill-opacity="1" /><path clip-path="url(#clip660)" d="M172.723 30.3701 Q177.544 30.3701 180.031 34.7345 Q182.568 39.0989 182.568 47.777 Q182.568 56.3535 180.031 60.7179 Q177.544 65.0316 172.723 65.0316 Q167.851 65.0316 165.314 60.6672 Q162.827 56.252 162.827 47.6755 Q162.827 39.0989 165.314 34.7345 Q167.851 30.3701 172.723 30.3701 M172.723 31.4358 Q168.46 31.4358 166.227 35.4957 Q163.994 39.5556 163.994 47.6755 Q163.994 55.7953 166.176 59.9059 Q168.409 63.9659 172.723 63.9659 Q177.037 63.9659 179.219 59.9567 Q181.401 55.8968 181.401 47.777 Q181.401 31.4358 172.723 31.4358 Z" fill="#000000" fill-rule="nonzero" fill-opacity="1" /><path clip-path="url(#clip660)" d="M24.1199 765.631 Q25.8912 765.631 26.9862 766.758 Q28.0812 767.853 28.0812 769.238 Q28.0812 770.236 27.4693 770.977 Q26.8574 771.686 25.7946 771.686 Q24.6996 771.686 23.5402 770.848 Q22.3807 770.011 22.2197 768.111 Q21.0281 769.367 21.0281 771.363 Q21.0281 772.362 21.6722 773.199 Q22.2841 774.004 23.2825 774.455 Q24.3131 774.938 30.1424 776.033 Q32.0425 776.388 33.8782 776.71 Q35.714 777.032 37.6463 777.418 L37.6463 771.943 Q37.6463 771.235 37.6785 770.945 Q37.7107 770.655 37.8718 770.43 Q38.0328 770.172 38.3871 770.172 Q39.2888 770.172 39.5143 770.591 Q39.7075 770.977 39.7075 772.136 L39.7075 777.805 L60.6091 781.766 Q61.221 781.863 63.1534 782.281 Q65.0535 782.668 68.1775 783.602 Q71.3337 784.536 73.2016 785.47 Q74.2644 785.985 75.2628 786.661 Q76.2934 787.305 77.3239 788.239 Q78.3545 789.173 78.9664 790.397 Q79.6106 791.621 79.6106 792.909 Q79.6106 795.099 78.3867 796.806 Q77.1629 798.513 75.0695 798.513 Q73.2982 798.513 72.2032 797.418 Q71.1082 796.291 71.1082 794.906 Q71.1082 793.908 71.7201 793.199 Q72.332 792.458 73.3948 792.458 Q73.8457 792.458 74.361 792.619 Q74.8763 792.78 75.456 793.135 Q76.0679 793.489 76.4866 794.262 Q76.9053 795.035 76.9697 796.098 Q78.1613 794.842 78.1613 792.909 Q78.1613 792.297 77.9036 791.75 Q77.6782 791.202 77.0985 790.751 Q76.5188 790.268 75.9391 789.914 Q75.3916 789.56 74.3288 789.206 Q73.2982 788.851 72.5253 788.626 Q71.7523 788.4 70.3675 788.111 Q68.9826 787.788 68.1453 787.627 Q67.3401 787.466 65.762 787.177 L39.7075 782.249 L39.7075 786.597 Q39.7075 787.37 39.6753 787.692 Q39.6431 787.982 39.4821 788.207 Q39.2888 788.433 38.9023 788.433 Q38.2904 788.433 38.0328 788.175 Q37.7429 787.885 37.7107 787.563 Q37.6463 787.241 37.6463 786.468 L37.6463 781.895 Q29.4982 780.349 27.3082 779.737 Q24.9894 779.028 23.3791 777.933 Q21.7366 776.838 20.9637 775.615 Q20.1907 774.391 19.9009 773.392 Q19.5788 772.362 19.5788 771.363 Q19.5788 769.109 20.8027 767.37 Q21.9943 765.631 24.1199 765.631 Z" fill="#000000" fill-rule="nonzero" fill-opacity="1" /><path clip-path="url(#clip660)" d="M49.5947 756.751 Q38.4515 756.751 29.466 752.596 Q25.6979 750.825 22.5418 748.345 Q19.3856 745.865 18.0007 744.223 Q16.6159 742.58 16.6159 742.129 Q16.6159 741.485 17.26 741.453 Q17.5821 741.453 18.3872 742.323 Q29.2084 752.951 49.5947 752.918 Q70.0454 752.918 80.4479 742.58 Q81.5751 741.453 81.9294 741.453 Q82.5735 741.453 82.5735 742.129 Q82.5735 742.58 81.2531 744.158 Q79.9326 745.736 76.9053 748.184 Q73.8779 750.632 70.1742 752.403 Q61.1888 756.751 49.5947 756.751 Z" fill="#000000" fill-rule="nonzero" fill-opacity="1" /><path clip-path="url(#clip660)" d="M41.2856 703.589 Q43.0891 703.589 44.1197 704.717 Q45.1181 705.844 45.1181 707.132 Q45.1181 708.356 44.4096 709 Q43.701 709.644 42.7993 709.644 Q41.5754 709.644 40.5126 708.742 Q39.4498 707.841 39.2244 706.488 Q38.3871 707.808 38.3871 709.773 Q38.3871 711.061 39.0634 712.188 Q39.7397 713.283 40.6093 713.96 Q41.4788 714.604 42.7348 715.184 Q43.9587 715.731 44.6994 715.957 Q45.4079 716.15 46.1809 716.311 L55.1985 718.565 Q59.4819 719.66 60.9956 719.66 Q62.8635 719.66 64.1195 718.758 Q65.3434 717.857 65.3434 716.053 Q65.3434 715.345 65.1501 714.539 Q64.9247 713.734 64.345 712.704 Q63.7331 711.641 62.8313 710.707 Q61.8973 709.741 60.3192 708.807 Q58.7412 707.873 56.7122 707.261 Q56.0037 707.068 56.0037 706.424 Q56.0037 705.618 56.6478 705.618 Q57.1953 705.618 58.3547 706.069 Q59.4819 706.488 60.9634 707.422 Q62.4126 708.324 63.7331 709.515 Q65.0213 710.707 65.9231 712.478 Q66.8248 714.25 66.8248 716.182 Q66.8248 718.952 65.3434 720.787 Q63.8619 722.623 61.8007 723.299 Q62.0906 723.46 62.477 723.686 Q62.8635 723.911 63.7331 724.588 Q64.5704 725.232 65.2145 725.973 Q65.8264 726.713 66.3095 727.873 Q66.8248 729 66.8248 730.224 Q66.8248 731.77 66.3739 733.154 Q65.9231 734.507 64.8925 735.473 Q63.8619 736.439 62.4448 736.439 Q60.8667 736.439 59.7717 735.377 Q58.6445 734.282 58.6445 732.8 Q58.6445 731.866 59.192 731.125 Q59.7395 730.353 60.9312 730.353 Q62.2516 730.353 63.25 731.254 Q64.2484 732.156 64.506 733.444 Q65.3434 732.124 65.3434 730.159 Q65.3434 728.034 63.4754 726.359 Q61.6075 724.684 58.4835 723.879 Q50.9795 721.882 47.6301 721.109 Q44.2485 720.337 42.7993 720.337 Q41.4466 720.337 40.5126 720.691 Q39.5787 721.045 39.16 721.657 Q38.7091 722.237 38.5481 722.784 Q38.3871 723.299 38.3871 723.879 Q38.3871 724.845 38.7735 725.94 Q39.16 727.003 40.0618 728.291 Q40.9313 729.547 42.7348 730.739 Q44.5384 731.931 47.0182 732.736 Q47.759 732.897 47.759 733.605 Q47.7268 734.378 47.0826 734.378 Q46.5351 734.378 45.4079 733.96 Q44.2485 733.509 42.7993 732.607 Q41.35 731.673 40.0618 730.481 Q38.7413 729.258 37.8396 727.486 Q36.9378 725.683 36.9378 723.75 Q36.9378 722.881 37.131 722.043 Q37.2921 721.174 37.7751 720.143 Q38.2582 719.08 39.321 718.147 Q40.3838 717.213 41.9297 716.633 Q41.189 716.246 40.4804 715.731 Q39.7719 715.184 38.9023 714.346 Q38.0006 713.477 37.4853 712.285 Q36.9378 711.061 36.9378 709.709 Q36.9378 708.388 37.2921 707.1 Q37.6141 705.812 38.6769 704.717 Q39.7075 703.589 41.2856 703.589 Z" fill="#000000" fill-rule="nonzero" fill-opacity="1" /><path clip-path="url(#clip660)" d="M81.9294 697.238 Q81.6073 697.238 80.8022 696.401 Q69.981 685.773 49.5947 685.773 Q29.144 685.773 18.8059 695.982 Q17.6143 697.238 17.26 697.238 Q16.6159 697.238 16.6159 696.594 Q16.6159 696.143 17.9363 694.565 Q19.2568 692.955 22.2841 690.539 Q25.3115 688.092 29.0151 686.288 Q38.0006 681.941 49.5947 681.941 Q60.7379 681.941 69.7234 686.095 Q73.4914 687.866 76.6476 690.346 Q79.8038 692.826 81.1886 694.469 Q82.5735 696.111 82.5735 696.594 Q82.5735 697.238 81.9294 697.238 Z" fill="#000000" fill-rule="nonzero" fill-opacity="1" /><polyline clip-path="url(#clip662)" style="stroke:#009af9; stroke-linecap:round; stroke-linejoin:round; stroke-width:4; stroke-opacity:1; fill:none" points="218.568,1409.42 240.126,1409.42 261.683,1409.42 283.241,1409.42 304.798,1409.42 326.355,1409.42 347.913,1409.42 369.47,1409.42 391.028,1409.42 412.585,1409.42 434.143,1409.42 455.7,1409.42 477.258,1409.42 498.815,1409.42 520.373,1409.42 541.93,1409.42 563.487,1409.42 585.045,1409.42 606.602,1409.42 628.16,1409.42 649.717,1409.42 671.275,1409.42 692.832,1409.42 714.39,1409.42 735.947,1409.42 757.504,1409.42 779.062,1409.42 800.619,1409.42 822.177,1409.42 843.734,1409.42 865.292,1409.42 886.849,1409.42 908.407,1409.42 929.964,1409.42 951.522,1409.42 973.079,1409.42 994.636,1409.42 1016.19,1409.42 1037.75,1409.42 1059.31,1409.42 1080.87,1409.42 1102.42,1409.42 1123.98,1409.42 1145.54,1409.42 1167.1,1409.42 1188.65,1409.42 1210.21,1409.42 1231.77,1409.42 1253.33,1409.42 1274.88,1409.42 1296.44,1409.42 1318,1409.42 1339.56,1409.42 1361.11,1409.42 1382.67,1409.42 1404.23,1409.42 1425.79,1409.42 1447.34,1409.42 1468.9,1409.42 1490.46,1409.42 1512.02,1409.42 1533.57,1409.42 1555.13,1409.42 1576.69,1409.42 1598.25,1409.42 1619.8,1409.42 1641.36,1409.42 1662.92,1409.42 1684.47,1409.42 1706.03,1409.42 1727.59,1409.42 1749.15,1409.42 1770.7,1409.42 1792.26,1409.42 1813.82,1409.42 1835.38,1409.42 1856.93,1409.42 1878.49,1409.42 1900.05,1409.42 1921.61,1409.42 1943.16,1409.42 1964.72,1409.42 1986.28,1409.42 2007.84,1409.42 2029.39,1409.42 2050.95,1409.42 2072.51,1409.42 2094.07,1409.42 2115.62,1409.42 2137.18,1409.42 2158.74,1409.42 2180.3,1409.42 2201.85,1409.42 2223.41,1409.42 2244.97,1409.42 2266.53,1409.42 2288.08,1409.42 2309.64,1409.42 2331.2,1409.42 2352.76,1409.42 "/>
<polyline clip-path="url(#clip662)" style="stroke:#e26f46; stroke-linecap:round; stroke-linejoin:round; stroke-width:4; stroke-opacity:1; fill:none" points="240.126,1422.98 261.683,1409.22 283.241,1401.17 304.798,1395.46 326.355,1391.03 347.913,1387.41 369.47,1384.35 391.028,1381.7 412.585,1379.36 434.143,1377.27 455.7,1375.38 477.258,1373.65 498.815,1372.06 520.373,1370.59 541.93,1369.22 563.487,1367.94 585.045,1366.74 606.602,1365.6 628.16,1364.53 649.717,1363.51 671.275,1362.54 692.832,1361.62 714.39,1360.74 735.947,1359.89 757.504,1359.08 779.062,1358.31 800.619,1357.56 822.177,1356.83 843.734,1356.14 865.292,1355.46 886.849,1354.81 908.407,1354.18 929.964,1353.57 951.522,1352.98 973.079,1352.4 994.636,1351.85 1016.19,1351.3 1037.75,1350.77 1059.31,1350.26 1080.87,1349.75 1102.42,1349.26 1123.98,1348.79 1145.54,1348.32 1167.1,1347.86 1188.65,1347.42 1210.21,1346.98 1231.77,1346.55 1253.33,1346.13 1274.88,1345.73 1296.44,1345.32 1318,1344.93 1339.56,1344.55 1361.11,1344.17 1382.67,1343.8 1404.23,1343.43 1425.79,1343.07 1447.34,1342.72 1468.9,1342.38 1490.46,1342.04 1512.02,1341.71 1533.57,1341.38 1555.13,1341.05 1576.69,1340.74 1598.25,1340.42 1619.8,1340.12 1641.36,1339.81 1662.92,1339.51 1684.47,1339.22 1706.03,1338.93 1727.59,1338.65 1749.15,1338.36 1770.7,1338.09 1792.26,1337.81 1813.82,1337.54 1835.38,1337.28 1856.93,1337.01 1878.49,1336.75 1900.05,1336.5 1921.61,1336.24 1943.16,1335.99 1964.72,1335.75 1986.28,1335.5 2007.84,1335.26 2029.39,1335.03 2050.95,1334.79 2072.51,1334.56 2094.07,1334.33 2115.62,1334.1 2137.18,1333.88 2158.74,1333.66 2180.3,1333.44 2201.85,1333.22 2223.41,1333.01 2244.97,1332.79 2266.53,1332.58 2288.08,1332.38 2309.64,1332.17 2331.2,1331.97 2352.76,1331.76 "/>
<polyline clip-path="url(#clip662)" style="stroke:#3da44d; stroke-linecap:round; stroke-linejoin:round; stroke-width:4; stroke-opacity:1; fill:none" points="218.568,1423.18 240.126,1409.35 261.683,1403.62 283.241,1399.23 304.798,1395.52 326.355,1392.26 347.913,1389.31 369.47,1386.59 391.028,1384.07 412.585,1381.69 434.143,1379.45 455.7,1377.32 477.258,1375.28 498.815,1373.32 520.373,1371.44 541.93,1369.62 563.487,1367.87 585.045,1366.16 606.602,1364.51 628.16,1362.9 649.717,1361.34 671.275,1359.81 692.832,1358.32 714.39,1356.86 735.947,1355.43 757.504,1354.04 779.062,1352.67 800.619,1351.32 822.177,1350.01 843.734,1348.71 865.292,1347.44 886.849,1346.19 908.407,1344.95 929.964,1343.74 951.522,1342.55 973.079,1341.37 994.636,1340.21 1016.19,1339.06 1037.75,1337.93 1059.31,1336.82 1080.87,1335.72 1102.42,1334.63 1123.98,1333.56 1145.54,1332.5 1167.1,1331.45 1188.65,1330.41 1210.21,1329.39 1231.77,1328.38 1253.33,1327.37 1274.88,1326.38 1296.44,1325.4 1318,1324.42 1339.56,1323.46 1361.11,1322.51 1382.67,1321.56 1404.23,1320.62 1425.79,1319.7 1447.34,1318.78 1468.9,1317.86 1490.46,1316.96 1512.02,1316.06 1533.57,1315.17 1555.13,1314.29 1576.69,1313.42 1598.25,1312.55 1619.8,1311.69 1641.36,1310.84 1662.92,1309.99 1684.47,1309.15 1706.03,1308.31 1727.59,1307.48 1749.15,1306.66 1770.7,1305.84 1792.26,1305.03 1813.82,1304.22 1835.38,1303.42 1856.93,1302.62 1878.49,1301.83 1900.05,1301.05 1921.61,1300.27 1943.16,1299.49 1964.72,1298.72 1986.28,1297.96 2007.84,1297.19 2029.39,1296.44 2050.95,1295.69 2072.51,1294.94 2094.07,1294.19 2115.62,1293.46 2137.18,1292.72 2158.74,1291.99 2180.3,1291.26 2201.85,1290.54 2223.41,1289.82 2244.97,1289.11 2266.53,1288.39 2288.08,1287.69 2309.64,1286.98 2331.2,1286.28 2352.76,1285.59 "/>
<polyline clip-path="url(#clip662)" style="stroke:#c271d2; stroke-linecap:round; stroke-linejoin:round; stroke-width:4; stroke-opacity:1; fill:none" points="218.568,1423.18 240.126,1409.28 261.683,1395.38 283.241,1381.48 304.798,1367.59 326.355,1353.69 347.913,1339.79 369.47,1325.89 391.028,1311.99 412.585,1298.09 434.143,1284.2 455.7,1270.3 477.258,1256.4 498.815,1242.5 520.373,1228.6 541.93,1214.7 563.487,1200.81 585.045,1186.91 606.602,1173.01 628.16,1159.11 649.717,1145.21 671.275,1131.31 692.832,1117.42 714.39,1103.52 735.947,1089.62 757.504,1075.72 779.062,1061.82 800.619,1047.92 822.177,1034.03 843.734,1020.13 865.292,1006.23 886.849,992.331 908.407,978.433 929.964,964.535 951.522,950.636 973.079,936.738 994.636,922.84 1016.19,908.941 1037.75,895.043 1059.31,881.145 1080.87,867.246 1102.42,853.348 1123.98,839.45 1145.54,825.551 1167.1,811.653 1188.65,797.755 1210.21,783.856 1231.77,769.958 1253.33,756.059 1274.88,742.161 1296.44,728.263 1318,714.364 1339.56,700.466 1361.11,686.568 1382.67,672.669 1404.23,658.771 1425.79,644.873 1447.34,630.974 1468.9,617.076 1490.46,603.178 1512.02,589.279 1533.57,575.381 1555.13,561.483 1576.69,547.584 1598.25,533.686 1619.8,519.788 1641.36,505.889 1662.92,491.991 1684.47,478.093 1706.03,464.194 1727.59,450.296 1749.15,436.398 1770.7,422.499 1792.26,408.601 1813.82,394.703 1835.38,380.804 1856.93,366.906 1878.49,353.008 1900.05,339.109 1921.61,325.211 1943.16,311.313 1964.72,297.414 1986.28,283.516 2007.84,269.618 2029.39,255.719 2050.95,241.821 2072.51,227.923 2094.07,214.024 2115.62,200.126 2137.18,186.228 2158.74,172.329 2180.3,158.431 2201.85,144.532 2223.41,130.634 2244.97,116.736 2266.53,102.837 2288.08,88.9391 2309.64,75.0408 2331.2,61.1424 2352.76,47.2441 "/>
<polyline clip-path="url(#clip662)" style="stroke:#ac8d18; stroke-linecap:round; stroke-linejoin:round; stroke-width:4; stroke-opacity:1; fill:none" points="240.126,1422.98 261.683,1394.98 283.241,1356.49 304.798,1311.19 326.355,1260.82 347.913,1206.41 369.47,1148.65 391.028,1088.01 412.585,1024.86 434.143,959.472 455.7,892.079 477.258,822.861 498.815,751.97 520.373,679.536 541.93,605.668 563.487,530.462 585.045,454.002 606.602,376.362 628.16,297.607 649.717,217.797 671.275,136.984 692.832,55.215 714.39,-27.4653 735.947,-111.018 757.504,-195.406 779.062,-280.596 800.619,-366.557 822.177,-453.262 843.734,-540.683 865.292,-628.795 886.849,-717.576 908.407,-807.003 929.964,-897.058 951.522,-987.72 973.079,-1078.97 994.636,-1170.8 1016.19,-1263.18 1037.75,-1356.1 1059.31,-1449.55 1080.87,-1543.52 1102.42,-1637.99 1123.98,-1732.94 1145.54,-1828.38 1167.1,-1924.28 1188.65,-2020.63 1210.21,-2117.43 1231.77,-2214.67 1253.33,-2312.34 1274.88,-2410.42 1296.44,-2508.91 1318,-2607.8 1339.56,-2707.09 1361.11,-2806.76 1382.67,-2906.81 1404.23,-3007.23 1425.79,-3108.01 1447.34,-3209.15 1468.9,-3310.65 1490.46,-3412.49 1512.02,-3514.67 1533.57,-3617.18 1555.13,-3720.03 1576.69,-3823.2 1598.25,-3926.68 1619.8,-4030.48 1641.36,-4134.59 1662.92,-4239 1684.47,-4343.71 1706.03,-4448.71 1727.59,-4554.01 1749.15,-4659.59 1770.7,-4765.45 1792.26,-4871.6 1813.82,-4978.01 1835.38,-5084.7 1856.93,-5191.66 1878.49,-5298.88 1900.05,-5406.36 1921.61,-5514.1 1943.16,-5622.09 1964.72,-5730.33 1986.28,-5838.82 2007.84,-5947.55 2029.39,-6056.53 2050.95,-6165.74 2072.51,-6275.19 2094.07,-6384.87 2115.62,-6494.79 2137.18,-6604.93 2158.74,-6715.3 2180.3,-6825.89 2201.85,-6936.7 2223.41,-7047.72 2244.97,-7158.97 2266.53,-7270.42 2288.08,-7382.09 2309.64,-7493.97 2331.2,-7606.05 2352.76,-7718.34 "/>
<polyline clip-path="url(#clip662)" style="stroke:#00a9ad; stroke-linecap:round; stroke-linejoin:round; stroke-width:4; stroke-opacity:1; fill:none" points="218.568,1423.18 240.126,1409.14 261.683,1367.02 283.241,1296.83 304.798,1198.56 326.355,1072.21 347.913,917.786 369.47,735.282 391.028,524.701 412.585,286.043 434.143,19.307 455.7,-275.506 477.258,-598.397 498.815,-949.365 520.373,-1328.41 541.93,-1735.53 563.487,-2170.73 585.045,-2634.01 606.602,-3125.37 628.16,-3644.8 649.717,-4192.31 671.275,-4767.9 692.832,-5371.56 714.39,-6003.31 735.947,-6663.13 757.504,-7351.03 779.062,-8067 800.619,-8811.05 822.177,-9583.18 843.734,-10383.4 865.292,-11211.7 886.849,-12068 908.407,-12952.5 929.964,-13865 951.522,-14805.6 973.079,-15774.3 994.636,-16771 1016.19,-17795.8 1037.75,-18848.7 1059.31,-19929.7 1080.87,-21038.8 1102.42,-22175.9 1123.98,-23341.1 1145.54,-24534.4 1167.1,-25755.8 1188.65,-27005.2 1210.21,-28282.8 1231.77,-29588.4 1253.33,-30922 1274.88,-32283.8 1296.44,-33673.6 1318,-35091.6 1339.56,-36537.5 1361.11,-38011.6 1382.67,-39513.8 1404.23,-41044 1425.79,-42602.3 1447.34,-44188.6 1468.9,-45803.1 1490.46,-47445.6 1512.02,-49116.2 1533.57,-50814.9 1555.13,-52541.7 1576.69,-54296.5 1598.25,-56079.5 1619.8,-57890.4 1641.36,-59729.5 1662.92,-61596.7 1684.47,-63491.9 1706.03,-65415.2 1727.59,-67366.6 1749.15,-69346 1770.7,-71353.6 1792.26,-73389.2 1813.82,-75452.9 1835.38,-77544.7 1856.93,-79664.5 1878.49,-81812.4 1900.05,-83988.4 1921.61,-86192.5 1943.16,-88424.7 1964.72,-90684.9 1986.28,-92973.2 2007.84,-95289.6 2029.39,-97634.1 2050.95,-100007 2072.51,-102407 2094.07,-104836 2115.62,-107293 2137.18,-109778 2158.74,-112291 2180.3,-114832 2201.85,-117401 2223.41,-119998 2244.97,-122623 2266.53,-125276 2288.08,-127958 2309.64,-130667 2331.2,-133405 2352.76,-136170 "/>
<polyline clip-path="url(#clip662)" style="stroke:#ed5d92; stroke-linecap:round; stroke-linejoin:round; stroke-width:4; stroke-opacity:1; fill:none" points="218.568,1409.42 240.126,1395.47 261.683,1367.37 283.241,1310.77 304.798,1196.78 326.355,967.194 347.913,504.8 369.47,-426.485 391.028,-2302.14 412.585,-6079.81 434.143,-13688.2 455.7,-29012 477.258,-59874.9 498.815,-122034 520.373,-247227 541.93,-499370 563.487,-1.0072e+06 585.045,-2.03e+06 606.602,-4.08997e+06 628.16,-4.1943e+06 649.717,-4.1943e+06 671.275,-4.1943e+06 692.832,-4.1943e+06 714.39,-4.1943e+06 735.947,-4.1943e+06 757.504,-4.1943e+06 779.062,-4.1943e+06 800.619,-4.1943e+06 822.177,-4.1943e+06 843.734,-4.1943e+06 865.292,-4.1943e+06 886.849,-4.1943e+06 908.407,-4.1943e+06 929.964,-4.1943e+06 951.522,-4.1943e+06 973.079,-4.1943e+06 994.636,-4.1943e+06 1016.19,-4.1943e+06 1037.75,-4.1943e+06 1059.31,-4.1943e+06 1080.87,-4.1943e+06 1102.42,-4.1943e+06 1123.98,-4.1943e+06 1145.54,-4.1943e+06 1167.1,-4.1943e+06 1188.65,-4.1943e+06 1210.21,-4.1943e+06 1231.77,-4.1943e+06 1253.33,-4.1943e+06 1274.88,-4.1943e+06 1296.44,-4.1943e+06 1318,-4.1943e+06 1339.56,-4.1943e+06 1361.11,-4.1943e+06 1382.67,-4.1943e+06 1404.23,-4.1943e+06 1425.79,-4.1943e+06 1447.34,-4.1943e+06 1468.9,-4.1943e+06 1490.46,-4.1943e+06 1512.02,-4.1943e+06 1533.57,-4.1943e+06 1555.13,-4.1943e+06 1576.69,-4.1943e+06 1598.25,-4.1943e+06 1619.8,-4.1943e+06 1641.36,-4.1943e+06 1662.92,-4.1943e+06 1684.47,-4.1943e+06 1706.03,-4.1943e+06 1727.59,-4.1943e+06 1749.15,-4.1943e+06 1770.7,-4.1943e+06 1792.26,-4.1943e+06 1813.82,-4.1943e+06 1835.38,-4.1943e+06 1856.93,-4.1943e+06 1878.49,-4.1943e+06 1900.05,-4.1943e+06 1921.61,-4.1943e+06 1943.16,-4.1943e+06 1964.72,-4.1943e+06 1986.28,-4.1943e+06 2007.84,-4.1943e+06 2029.39,-4.1943e+06 2050.95,-4.1943e+06 2072.51,-4.1943e+06 2094.07,-4.1943e+06 2115.62,-4.1943e+06 2137.18,-4.1943e+06 2158.74,-4.1943e+06 2180.3,-4.1943e+06 2201.85,-4.1943e+06 2223.41,-4.1943e+06 2244.97,-4.1943e+06 2266.53,-4.1943e+06 2288.08,-4.1943e+06 2309.64,-4.1943e+06 2331.2,-4.1943e+06 2352.76,-4.1943e+06 "/>
<polyline clip-path="url(#clip662)" style="stroke:#c68125; stroke-linecap:round; stroke-linejoin:round; stroke-width:4; stroke-opacity:1; fill:none" points="218.568,1409.42 239.91,1409.42 261.252,1395.66 282.594,1340.62 303.936,1092.96 325.278,-227.943 "/>
<path clip-path="url(#clip660)" d="M1883.97 1015.86 L2281.62 1015.86 L2281.62 487.6 L1883.97 487.6  Z" fill="#000000" fill-rule="evenodd" fill-opacity="0"/>
<polyline clip-path="url(#clip660)" style="stroke:#000000; stroke-linecap:round; stroke-linejoin:round; stroke-width:4; stroke-opacity:1; fill:none" points="1883.97,1015.86 2281.62,1015.86 2281.62,487.6 1883.97,487.6 1883.97,1015.86 "/>
<polyline clip-path="url(#clip660)" style="stroke:#009af9; stroke-linecap:round; stroke-linejoin:round; stroke-width:4; stroke-opacity:1; fill:none" points="1907.68,546.295 2049.96,546.295 "/>
<path clip-path="url(#clip660)" d="M2073.68 534.735 L2073.68 533.236 Q2079.44 533.236 2082.41 530.167 Q2083.23 530.167 2083.37 530.355 Q2083.51 530.542 2083.51 531.409 L2083.51 558.321 Q2083.51 559.75 2084.22 560.195 Q2084.92 560.64 2087.99 560.64 L2089.51 560.64 L2089.51 562.116 Q2087.82 561.975 2081.73 561.975 Q2075.64 561.975 2073.98 562.116 L2073.98 560.64 L2075.5 560.64 Q2078.52 560.64 2079.25 560.218 Q2079.98 559.773 2079.98 558.321 L2079.98 533.47 Q2077.47 534.735 2073.68 534.735 Z" fill="#000000" fill-rule="nonzero" fill-opacity="1" /><polyline clip-path="url(#clip660)" style="stroke:#e26f46; stroke-linecap:round; stroke-linejoin:round; stroke-width:4; stroke-opacity:1; fill:none" points="1907.68,604.991 2049.96,604.991 "/>
<path clip-path="url(#clip660)" d="M2079.38 611.268 L2079.38 609.792 Q2081.93 609.792 2082.52 609.488 Q2083.1 609.16 2083.1 607.614 L2083.1 582.669 Q2083.1 580.889 2082.47 580.444 Q2081.86 579.999 2079.38 579.999 L2079.38 578.5 L2086.26 577.985 L2086.26 607.614 Q2086.26 609.16 2086.87 609.488 Q2087.48 609.792 2090.01 609.792 L2090.01 611.268 Q2089.43 611.268 2088.21 611.221 Q2086.99 611.174 2086.1 611.151 Q2085.21 611.127 2084.7 611.127 Q2084.13 611.127 2079.38 611.268 Z" fill="#000000" fill-rule="nonzero" fill-opacity="1" /><path clip-path="url(#clip660)" d="M2097.23 608.691 Q2094.07 605.553 2094.07 601.009 Q2094.07 596.441 2097.16 593.116 Q2100.27 589.766 2104.72 589.766 Q2109.08 589.766 2112.19 593.092 Q2115.33 596.395 2115.33 601.009 Q2115.33 605.529 2112.17 608.668 Q2109.03 611.807 2104.68 611.807 Q2100.41 611.807 2097.23 608.691 M2098.05 600.611 Q2098.05 605.272 2099.26 607.38 Q2101.14 610.589 2104.72 610.589 Q2106.5 610.589 2107.98 609.628 Q2109.48 608.668 2110.3 607.052 Q2111.35 604.944 2111.35 600.611 Q2111.35 595.996 2110.09 593.959 Q2108.21 590.844 2104.68 590.844 Q2103.13 590.844 2101.61 591.663 Q2100.11 592.46 2099.19 594.052 Q2098.05 596.16 2098.05 600.611 Z" fill="#000000" fill-rule="nonzero" fill-opacity="1" /><path clip-path="url(#clip660)" d="M2116.09 615.062 Q2116.09 613.516 2117.26 612.181 Q2118.45 610.846 2120.51 610.261 Q2118.41 608.926 2118.41 605.998 Q2118.41 603.749 2119.88 602.016 Q2117.63 600.142 2117.63 597.074 Q2117.63 594.24 2119.88 592.155 Q2122.13 590.071 2125.41 590.071 Q2128.29 590.071 2130.49 591.804 Q2132.79 589.555 2135.57 589.532 Q2136.82 589.532 2137.4 590.305 Q2138.01 591.078 2138.01 591.898 Q2138.01 592.624 2137.54 592.975 Q2137.1 593.326 2136.63 593.326 Q2136.04 593.326 2135.62 592.952 Q2135.22 592.553 2135.22 591.944 Q2135.22 590.937 2136 590.633 Q2135.86 590.586 2135.53 590.586 Q2133.19 590.586 2131.19 592.46 Q2133.16 594.287 2133.16 597.121 Q2133.16 599.955 2130.91 602.039 Q2128.66 604.124 2125.41 604.124 Q2122.72 604.124 2120.65 602.625 Q2119.83 603.585 2119.83 604.897 Q2119.83 606.092 2120.56 607.028 Q2121.29 607.965 2122.39 608.106 Q2122.72 608.153 2125.97 608.153 Q2127.89 608.153 2128.95 608.2 Q2130 608.246 2131.5 608.574 Q2133.02 608.879 2134.22 609.488 Q2137.33 611.221 2137.35 614.969 Q2137.35 617.709 2134.19 619.419 Q2131.05 621.152 2126.7 621.152 Q2122.29 621.152 2119.18 619.395 Q2116.09 617.662 2116.09 615.062 M2118.59 615.062 Q2118.59 617.03 2120.91 618.529 Q2123.23 620.051 2126.74 620.051 Q2130.19 620.051 2132.51 618.552 Q2134.85 617.077 2134.85 615.062 Q2134.85 613.634 2134.03 612.72 Q2133.21 611.807 2131.52 611.432 Q2129.86 611.081 2128.69 611.01 Q2127.52 610.94 2125.36 610.94 L2122.53 610.94 Q2120.89 611.034 2119.74 612.228 Q2118.59 613.423 2118.59 615.062 M2121.22 597.121 Q2121.22 603.023 2125.41 603.023 Q2127.52 603.023 2128.81 601.103 Q2129.58 599.814 2129.58 597.074 Q2129.58 591.171 2125.41 591.171 Q2123.3 591.171 2121.99 593.092 Q2121.22 594.38 2121.22 597.121 Z" fill="#000000" fill-rule="nonzero" fill-opacity="1" /><path clip-path="url(#clip660)" d="M2150.66 634.338 Q2150.66 633.732 2150.71 633.551 Q2150.77 633.371 2151.04 633.092 L2157.48 625.911 Q2161 621.943 2161 618.484 Q2161 616.237 2159.82 614.631 Q2158.66 613.024 2156.51 613.024 Q2155.04 613.024 2153.79 613.926 Q2152.54 614.827 2151.97 616.434 Q2152.07 616.401 2152.41 616.401 Q2153.25 616.401 2153.71 616.926 Q2154.18 617.451 2154.18 618.156 Q2154.18 619.057 2153.59 619.5 Q2153.02 619.926 2152.45 619.926 Q2152.22 619.926 2151.91 619.877 Q2151.61 619.828 2151.13 619.369 Q2150.66 618.893 2150.66 618.057 Q2150.66 615.713 2152.43 613.844 Q2154.22 611.974 2156.94 611.974 Q2160.02 611.974 2162.04 613.811 Q2164.07 615.631 2164.07 618.484 Q2164.07 619.484 2163.76 620.402 Q2163.46 621.304 2163.05 622.009 Q2162.66 622.714 2161.58 623.845 Q2160.5 624.976 2159.63 625.78 Q2158.76 626.583 2156.81 628.288 L2153.25 631.748 L2159.3 631.748 Q2162.25 631.748 2162.48 631.485 Q2162.81 631.01 2163.22 628.501 L2164.07 628.501 L2163.12 634.338 L2150.66 634.338 Z" fill="#000000" fill-rule="nonzero" fill-opacity="1" /><path clip-path="url(#clip660)" d="M2169.06 599.276 Q2169.06 591.171 2172.08 584.637 Q2173.37 581.896 2175.17 579.601 Q2176.97 577.305 2178.17 576.298 Q2179.36 575.291 2179.69 575.291 Q2180.16 575.291 2180.18 575.759 Q2180.18 575.994 2179.55 576.579 Q2171.82 584.449 2171.84 599.276 Q2171.84 614.149 2179.36 621.714 Q2180.18 622.534 2180.18 622.792 Q2180.18 623.26 2179.69 623.26 Q2179.36 623.26 2178.22 622.3 Q2177.07 621.34 2175.29 619.138 Q2173.51 616.936 2172.22 614.243 Q2169.06 607.708 2169.06 599.276 Z" fill="#000000" fill-rule="nonzero" fill-opacity="1" /><path clip-path="url(#clip660)" d="M2207.72 593.233 Q2207.72 594.544 2206.9 595.294 Q2206.08 596.02 2205.14 596.02 Q2204.25 596.02 2203.78 595.505 Q2203.31 594.989 2203.31 594.333 Q2203.31 593.443 2203.97 592.67 Q2204.62 591.898 2205.61 591.734 Q2204.65 591.125 2203.22 591.125 Q2202.28 591.125 2201.46 591.616 Q2200.67 592.108 2200.17 592.741 Q2199.71 593.373 2199.28 594.287 Q2198.89 595.177 2198.72 595.715 Q2198.58 596.231 2198.46 596.793 L2196.82 603.351 Q2196.03 606.466 2196.03 607.567 Q2196.03 608.926 2196.68 609.839 Q2197.34 610.729 2198.65 610.729 Q2199.17 610.729 2199.75 610.589 Q2200.34 610.425 2201.09 610.003 Q2201.86 609.558 2202.54 608.902 Q2203.24 608.223 2203.92 607.075 Q2204.6 605.928 2205.05 604.452 Q2205.19 603.937 2205.65 603.937 Q2206.24 603.937 2206.24 604.405 Q2206.24 604.803 2205.91 605.647 Q2205.61 606.466 2204.93 607.544 Q2204.27 608.598 2203.41 609.558 Q2202.54 610.495 2201.25 611.151 Q2199.96 611.807 2198.56 611.807 Q2196.54 611.807 2195.21 610.729 Q2193.87 609.652 2193.38 608.153 Q2193.26 608.364 2193.1 608.645 Q2192.94 608.926 2192.44 609.558 Q2191.98 610.167 2191.44 610.635 Q2190.9 611.081 2190.06 611.432 Q2189.24 611.807 2188.35 611.807 Q2187.22 611.807 2186.21 611.479 Q2185.23 611.151 2184.53 610.401 Q2183.82 609.652 2183.82 608.621 Q2183.82 607.473 2184.6 606.677 Q2185.39 605.857 2186.47 605.857 Q2187.15 605.857 2187.69 606.255 Q2188.25 606.654 2188.25 607.52 Q2188.25 608.481 2187.6 609.207 Q2186.94 609.933 2186 610.12 Q2186.96 610.729 2188.39 610.729 Q2189.94 610.729 2191.16 609.371 Q2192.37 608.012 2192.96 605.74 Q2194.41 600.283 2194.97 597.847 Q2195.54 595.387 2195.54 594.333 Q2195.54 593.35 2195.28 592.67 Q2195.02 591.991 2194.58 591.687 Q2194.15 591.359 2193.76 591.242 Q2193.38 591.125 2192.96 591.125 Q2192.26 591.125 2191.46 591.406 Q2190.69 591.687 2189.75 592.343 Q2188.84 592.975 2187.97 594.287 Q2187.1 595.598 2186.52 597.402 Q2186.4 597.941 2185.89 597.941 Q2185.32 597.917 2185.32 597.449 Q2185.32 597.05 2185.63 596.231 Q2185.96 595.387 2186.61 594.333 Q2187.29 593.279 2188.16 592.343 Q2189.05 591.382 2190.34 590.726 Q2191.65 590.071 2193.05 590.071 Q2193.69 590.071 2194.29 590.211 Q2194.93 590.328 2195.68 590.68 Q2196.45 591.031 2197.13 591.804 Q2197.81 592.577 2198.23 593.701 Q2198.51 593.162 2198.89 592.647 Q2199.28 592.132 2199.89 591.499 Q2200.52 590.844 2201.39 590.469 Q2202.28 590.071 2203.27 590.071 Q2204.23 590.071 2205.16 590.328 Q2206.1 590.562 2206.9 591.335 Q2207.72 592.085 2207.72 593.233 Z" fill="#000000" fill-rule="nonzero" fill-opacity="1" /><path clip-path="url(#clip660)" d="M2212.33 622.792 Q2212.33 622.558 2212.94 621.972 Q2220.67 614.102 2220.67 599.276 Q2220.67 584.402 2213.24 576.884 Q2212.33 576.017 2212.33 575.759 Q2212.33 575.291 2212.8 575.291 Q2213.12 575.291 2214.27 576.251 Q2215.44 577.212 2217.2 579.413 Q2218.98 581.615 2220.29 584.309 Q2223.45 590.844 2223.45 599.276 Q2223.45 607.38 2220.43 613.915 Q2219.14 616.655 2217.34 618.95 Q2215.54 621.246 2214.34 622.253 Q2213.15 623.26 2212.8 623.26 Q2212.33 623.26 2212.33 622.792 Z" fill="#000000" fill-rule="nonzero" fill-opacity="1" /><polyline clip-path="url(#clip660)" style="stroke:#3da44d; stroke-linecap:round; stroke-linejoin:round; stroke-width:4; stroke-opacity:1; fill:none" points="1907.68,663.686 2049.96,663.686 "/>
<path clip-path="url(#clip660)" d="M2073.68 671.09 L2078.44 663.747 L2080.37 673.491 L2080.74 675.266 Q2080.82 674.802 2081.06 674.015 Q2081.32 673.208 2081.36 673.007 L2087.76 648.456 Q2087.8 648.295 2087.86 648.033 Q2087.94 647.75 2087.98 647.65 Q2088.02 647.549 2088.08 647.347 Q2088.14 647.145 2088.18 647.085 Q2088.22 647.004 2088.28 646.863 Q2088.34 646.722 2088.42 646.681 Q2088.5 646.641 2088.6 646.56 Q2088.71 646.48 2088.83 646.459 Q2088.97 646.439 2089.11 646.419 Q2089.25 646.399 2089.45 646.399 L2093.06 646.399 Q2094.33 646.399 2094.33 647.226 Q2094.33 648.053 2093.1 648.053 L2089.57 648.053 L2081.24 679.906 Q2081.12 680.37 2081.02 680.551 Q2080.94 680.733 2080.66 680.894 Q2080.37 681.056 2079.87 681.056 L2079.47 681.056 L2076.82 667.923 L2074.34 671.756 L2073.68 671.09 Z" fill="#000000" fill-rule="nonzero" fill-opacity="1" /><path clip-path="url(#clip660)" d="M2092.97 648.072 L2126.87 648.072 L2126.87 646.356 L2092.97 646.356  Z" fill="#000000" fill-rule="evenodd" fill-opacity="1"/>
<path clip-path="url(#clip660)" d="M2121.98 662.021 Q2121.98 663.333 2121.16 664.083 Q2120.34 664.809 2119.41 664.809 Q2118.52 664.809 2118.05 664.293 Q2117.58 663.778 2117.58 663.122 Q2117.58 662.232 2118.23 661.459 Q2118.89 660.686 2119.87 660.522 Q2118.91 659.913 2117.48 659.913 Q2116.55 659.913 2115.73 660.405 Q2114.93 660.897 2114.44 661.529 Q2113.97 662.162 2113.55 663.075 Q2113.15 663.965 2112.99 664.504 Q2112.85 665.019 2112.73 665.582 L2111.09 672.14 Q2110.29 675.255 2110.29 676.356 Q2110.29 677.714 2110.95 678.628 Q2111.61 679.518 2112.92 679.518 Q2113.43 679.518 2114.02 679.377 Q2114.6 679.213 2115.35 678.792 Q2116.13 678.347 2116.81 677.691 Q2117.51 677.012 2118.19 675.864 Q2118.87 674.716 2119.31 673.241 Q2119.45 672.725 2119.92 672.725 Q2120.51 672.725 2120.51 673.194 Q2120.51 673.592 2120.18 674.435 Q2119.87 675.255 2119.19 676.332 Q2118.54 677.386 2117.67 678.347 Q2116.81 679.284 2115.52 679.94 Q2114.23 680.595 2112.82 680.595 Q2110.81 680.595 2109.47 679.518 Q2108.14 678.44 2107.65 676.941 Q2107.53 677.152 2107.37 677.433 Q2107.2 677.714 2106.71 678.347 Q2106.24 678.956 2105.7 679.424 Q2105.16 679.869 2104.32 680.221 Q2103.5 680.595 2102.61 680.595 Q2101.49 680.595 2100.48 680.267 Q2099.5 679.94 2098.79 679.19 Q2098.09 678.44 2098.09 677.41 Q2098.09 676.262 2098.86 675.466 Q2099.66 674.646 2100.74 674.646 Q2101.42 674.646 2101.96 675.044 Q2102.52 675.442 2102.52 676.309 Q2102.52 677.269 2101.86 677.995 Q2101.21 678.722 2100.27 678.909 Q2101.23 679.518 2102.66 679.518 Q2104.2 679.518 2105.42 678.159 Q2106.64 676.801 2107.23 674.529 Q2108.68 669.072 2109.24 666.636 Q2109.8 664.176 2109.8 663.122 Q2109.8 662.138 2109.54 661.459 Q2109.29 660.78 2108.84 660.475 Q2108.42 660.148 2108.02 660.03 Q2107.65 659.913 2107.23 659.913 Q2106.52 659.913 2105.73 660.194 Q2104.95 660.475 2104.02 661.131 Q2103.1 661.764 2102.24 663.075 Q2101.37 664.387 2100.78 666.191 Q2100.67 666.729 2100.15 666.729 Q2099.59 666.706 2099.59 666.237 Q2099.59 665.839 2099.89 665.019 Q2100.22 664.176 2100.88 663.122 Q2101.56 662.068 2102.42 661.131 Q2103.31 660.171 2104.6 659.515 Q2105.91 658.859 2107.32 658.859 Q2107.95 658.859 2108.56 659 Q2109.19 659.117 2109.94 659.468 Q2110.72 659.82 2111.4 660.593 Q2112.07 661.366 2112.5 662.49 Q2112.78 661.951 2113.15 661.436 Q2113.55 660.92 2114.16 660.288 Q2114.79 659.632 2115.66 659.258 Q2116.55 658.859 2117.53 658.859 Q2118.49 658.859 2119.43 659.117 Q2120.37 659.351 2121.16 660.124 Q2121.98 660.874 2121.98 662.021 Z" fill="#000000" fill-rule="nonzero" fill-opacity="1" /><polyline clip-path="url(#clip660)" style="stroke:#c271d2; stroke-linecap:round; stroke-linejoin:round; stroke-width:4; stroke-opacity:1; fill:none" points="1907.68,722.381 2049.96,722.381 "/>
<path clip-path="url(#clip660)" d="M2097.57 714.572 Q2097.57 715.884 2096.75 716.634 Q2095.93 717.36 2094.99 717.36 Q2094.1 717.36 2093.63 716.844 Q2093.16 716.329 2093.16 715.673 Q2093.16 714.783 2093.82 714.01 Q2094.48 713.237 2095.46 713.073 Q2094.5 712.464 2093.07 712.464 Q2092.13 712.464 2091.31 712.956 Q2090.52 713.448 2090.03 714.081 Q2089.56 714.713 2089.14 715.626 Q2088.74 716.517 2088.57 717.055 Q2088.43 717.571 2088.32 718.133 L2086.68 724.691 Q2085.88 727.806 2085.88 728.907 Q2085.88 730.265 2086.54 731.179 Q2087.19 732.069 2088.5 732.069 Q2089.02 732.069 2089.6 731.928 Q2090.19 731.765 2090.94 731.343 Q2091.71 730.898 2092.39 730.242 Q2093.09 729.563 2093.77 728.415 Q2094.45 727.267 2094.9 725.792 Q2095.04 725.277 2095.51 725.277 Q2096.09 725.277 2096.09 725.745 Q2096.09 726.143 2095.76 726.986 Q2095.46 727.806 2094.78 728.884 Q2094.12 729.938 2093.26 730.898 Q2092.39 731.835 2091.1 732.491 Q2089.81 733.146 2088.41 733.146 Q2086.39 733.146 2085.06 732.069 Q2083.72 730.992 2083.23 729.493 Q2083.12 729.703 2082.95 729.984 Q2082.79 730.265 2082.3 730.898 Q2081.83 731.507 2081.29 731.975 Q2080.75 732.42 2079.91 732.772 Q2079.09 733.146 2078.2 733.146 Q2077.07 733.146 2076.07 732.819 Q2075.08 732.491 2074.38 731.741 Q2073.68 730.992 2073.68 729.961 Q2073.68 728.813 2074.45 728.017 Q2075.25 727.197 2076.32 727.197 Q2077 727.197 2077.54 727.595 Q2078.1 727.994 2078.1 728.86 Q2078.1 729.82 2077.45 730.547 Q2076.79 731.273 2075.85 731.46 Q2076.82 732.069 2078.24 732.069 Q2079.79 732.069 2081.01 730.711 Q2082.23 729.352 2082.81 727.08 Q2084.26 721.623 2084.83 719.187 Q2085.39 716.727 2085.39 715.673 Q2085.39 714.69 2085.13 714.01 Q2084.87 713.331 2084.43 713.027 Q2084.01 712.699 2083.61 712.582 Q2083.23 712.464 2082.81 712.464 Q2082.11 712.464 2081.31 712.746 Q2080.54 713.027 2079.6 713.682 Q2078.69 714.315 2077.82 715.626 Q2076.96 716.938 2076.37 718.742 Q2076.25 719.28 2075.74 719.28 Q2075.18 719.257 2075.18 718.789 Q2075.18 718.39 2075.48 717.571 Q2075.81 716.727 2076.46 715.673 Q2077.14 714.619 2078.01 713.682 Q2078.9 712.722 2080.19 712.066 Q2081.5 711.41 2082.9 711.41 Q2083.54 711.41 2084.15 711.551 Q2084.78 711.668 2085.53 712.019 Q2086.3 712.371 2086.98 713.144 Q2087.66 713.917 2088.08 715.041 Q2088.36 714.502 2088.74 713.987 Q2089.14 713.472 2089.74 712.839 Q2090.38 712.183 2091.24 711.809 Q2092.13 711.41 2093.12 711.41 Q2094.08 711.41 2095.01 711.668 Q2095.95 711.902 2096.75 712.675 Q2097.57 713.425 2097.57 714.572 Z" fill="#000000" fill-rule="nonzero" fill-opacity="1" /><polyline clip-path="url(#clip660)" style="stroke:#ac8d18; stroke-linecap:round; stroke-linejoin:round; stroke-width:4; stroke-opacity:1; fill:none" points="1907.68,781.076 2049.96,781.076 "/>
<path clip-path="url(#clip660)" d="M2097.57 769.319 Q2097.57 770.63 2096.75 771.38 Q2095.93 772.106 2094.99 772.106 Q2094.1 772.106 2093.63 771.591 Q2093.16 771.075 2093.16 770.419 Q2093.16 769.529 2093.82 768.756 Q2094.48 767.983 2095.46 767.82 Q2094.5 767.211 2093.07 767.211 Q2092.13 767.211 2091.31 767.702 Q2090.52 768.194 2090.03 768.827 Q2089.56 769.459 2089.14 770.373 Q2088.74 771.263 2088.57 771.801 Q2088.43 772.317 2088.32 772.879 L2086.68 779.437 Q2085.88 782.552 2085.88 783.653 Q2085.88 785.012 2086.54 785.925 Q2087.19 786.815 2088.5 786.815 Q2089.02 786.815 2089.6 786.675 Q2090.19 786.511 2090.94 786.089 Q2091.71 785.644 2092.39 784.988 Q2093.09 784.309 2093.77 783.161 Q2094.45 782.014 2094.9 780.538 Q2095.04 780.023 2095.51 780.023 Q2096.09 780.023 2096.09 780.491 Q2096.09 780.889 2095.76 781.732 Q2095.46 782.552 2094.78 783.63 Q2094.12 784.684 2093.26 785.644 Q2092.39 786.581 2091.1 787.237 Q2089.81 787.893 2088.41 787.893 Q2086.39 787.893 2085.06 786.815 Q2083.72 785.738 2083.23 784.239 Q2083.12 784.449 2082.95 784.731 Q2082.79 785.012 2082.3 785.644 Q2081.83 786.253 2081.29 786.721 Q2080.75 787.166 2079.91 787.518 Q2079.09 787.893 2078.2 787.893 Q2077.07 787.893 2076.07 787.565 Q2075.08 787.237 2074.38 786.487 Q2073.68 785.738 2073.68 784.707 Q2073.68 783.559 2074.45 782.763 Q2075.25 781.943 2076.32 781.943 Q2077 781.943 2077.54 782.341 Q2078.1 782.74 2078.1 783.606 Q2078.1 784.567 2077.45 785.293 Q2076.79 786.019 2075.85 786.206 Q2076.82 786.815 2078.24 786.815 Q2079.79 786.815 2081.01 785.457 Q2082.23 784.098 2082.81 781.826 Q2084.26 776.369 2084.83 773.933 Q2085.39 771.473 2085.39 770.419 Q2085.39 769.436 2085.13 768.756 Q2084.87 768.077 2084.43 767.773 Q2084.01 767.445 2083.61 767.328 Q2083.23 767.211 2082.81 767.211 Q2082.11 767.211 2081.31 767.492 Q2080.54 767.773 2079.6 768.429 Q2078.69 769.061 2077.82 770.373 Q2076.96 771.684 2076.37 773.488 Q2076.25 774.026 2075.74 774.026 Q2075.18 774.003 2075.18 773.535 Q2075.18 773.136 2075.48 772.317 Q2075.81 771.473 2076.46 770.419 Q2077.14 769.365 2078.01 768.429 Q2078.9 767.468 2080.19 766.812 Q2081.5 766.157 2082.9 766.157 Q2083.54 766.157 2084.15 766.297 Q2084.78 766.414 2085.53 766.766 Q2086.3 767.117 2086.98 767.89 Q2087.66 768.663 2088.08 769.787 Q2088.36 769.248 2088.74 768.733 Q2089.14 768.218 2089.74 767.585 Q2090.38 766.929 2091.24 766.555 Q2092.13 766.157 2093.12 766.157 Q2094.08 766.157 2095.01 766.414 Q2095.95 766.648 2096.75 767.421 Q2097.57 768.171 2097.57 769.319 Z" fill="#000000" fill-rule="nonzero" fill-opacity="1" /><path clip-path="url(#clip660)" d="M2106.54 787.354 L2106.54 785.878 Q2109.09 785.878 2109.68 785.574 Q2110.26 785.246 2110.26 783.7 L2110.26 758.755 Q2110.26 756.975 2109.63 756.53 Q2109.02 756.085 2106.54 756.085 L2106.54 754.586 L2113.42 754.071 L2113.42 783.7 Q2113.42 785.246 2114.03 785.574 Q2114.64 785.878 2117.17 785.878 L2117.17 787.354 Q2116.59 787.354 2115.37 787.307 Q2114.15 787.26 2113.26 787.237 Q2112.37 787.213 2111.85 787.213 Q2111.29 787.213 2106.54 787.354 Z" fill="#000000" fill-rule="nonzero" fill-opacity="1" /><path clip-path="url(#clip660)" d="M2124.39 784.777 Q2121.22 781.639 2121.22 777.095 Q2121.22 772.527 2124.32 769.201 Q2127.43 765.852 2131.88 765.852 Q2136.24 765.852 2139.35 769.178 Q2142.49 772.481 2142.49 777.095 Q2142.49 781.615 2139.33 784.754 Q2136.19 787.893 2131.83 787.893 Q2127.57 787.893 2124.39 784.777 M2125.21 776.697 Q2125.21 781.358 2126.42 783.466 Q2128.3 786.675 2131.88 786.675 Q2133.66 786.675 2135.14 785.714 Q2136.64 784.754 2137.46 783.138 Q2138.51 781.03 2138.51 776.697 Q2138.51 772.082 2137.25 770.045 Q2135.37 766.929 2131.83 766.929 Q2130.29 766.929 2128.77 767.749 Q2127.27 768.546 2126.35 770.138 Q2125.21 772.246 2125.21 776.697 Z" fill="#000000" fill-rule="nonzero" fill-opacity="1" /><path clip-path="url(#clip660)" d="M2143.25 791.148 Q2143.25 789.602 2144.42 788.267 Q2145.61 786.932 2147.67 786.347 Q2145.57 785.012 2145.57 782.084 Q2145.57 779.835 2147.04 778.102 Q2144.79 776.228 2144.79 773.16 Q2144.79 770.326 2147.04 768.241 Q2149.29 766.157 2152.57 766.157 Q2155.45 766.157 2157.65 767.89 Q2159.95 765.641 2162.73 765.618 Q2163.98 765.618 2164.56 766.391 Q2165.17 767.164 2165.17 767.983 Q2165.17 768.71 2164.7 769.061 Q2164.26 769.412 2163.79 769.412 Q2163.2 769.412 2162.78 769.037 Q2162.38 768.639 2162.38 768.03 Q2162.38 767.023 2163.16 766.719 Q2163.02 766.672 2162.69 766.672 Q2160.34 766.672 2158.35 768.546 Q2160.32 770.373 2160.32 773.207 Q2160.32 776.041 2158.07 778.125 Q2155.82 780.21 2152.57 780.21 Q2149.88 780.21 2147.81 778.711 Q2146.99 779.671 2146.99 780.983 Q2146.99 782.177 2147.72 783.114 Q2148.45 784.051 2149.55 784.192 Q2149.88 784.239 2153.13 784.239 Q2155.05 784.239 2156.11 784.285 Q2157.16 784.332 2158.66 784.66 Q2160.18 784.965 2161.38 785.574 Q2164.49 787.307 2164.51 791.055 Q2164.51 793.795 2161.35 795.505 Q2158.21 797.238 2153.86 797.238 Q2149.45 797.238 2146.34 795.481 Q2143.25 793.748 2143.25 791.148 M2145.75 791.148 Q2145.75 793.116 2148.07 794.615 Q2150.39 796.137 2153.9 796.137 Q2157.35 796.137 2159.67 794.638 Q2162.01 793.163 2162.01 791.148 Q2162.01 789.72 2161.19 788.806 Q2160.37 787.893 2158.68 787.518 Q2157.02 787.166 2155.85 787.096 Q2154.68 787.026 2152.52 787.026 L2149.69 787.026 Q2148.05 787.12 2146.9 788.314 Q2145.75 789.509 2145.75 791.148 M2148.38 773.207 Q2148.38 779.109 2152.57 779.109 Q2154.68 779.109 2155.96 777.188 Q2156.74 775.9 2156.74 773.16 Q2156.74 767.257 2152.57 767.257 Q2150.46 767.257 2149.15 769.178 Q2148.38 770.466 2148.38 773.207 Z" fill="#000000" fill-rule="nonzero" fill-opacity="1" /><path clip-path="url(#clip660)" d="M2177.82 810.424 Q2177.82 809.818 2177.87 809.637 Q2177.93 809.457 2178.2 809.178 L2184.64 801.997 Q2188.16 798.029 2188.16 794.569 Q2188.16 792.323 2186.98 790.717 Q2185.82 789.11 2183.67 789.11 Q2182.2 789.11 2180.95 790.011 Q2179.7 790.913 2179.13 792.52 Q2179.23 792.487 2179.57 792.487 Q2180.41 792.487 2180.87 793.012 Q2181.34 793.537 2181.34 794.242 Q2181.34 795.143 2180.75 795.586 Q2180.18 796.012 2179.61 796.012 Q2179.38 796.012 2179.06 795.963 Q2178.77 795.914 2178.29 795.455 Q2177.82 794.979 2177.82 794.143 Q2177.82 791.799 2179.59 789.93 Q2181.38 788.06 2184.1 788.06 Q2187.18 788.06 2189.2 789.897 Q2191.23 791.717 2191.23 794.569 Q2191.23 795.57 2190.92 796.488 Q2190.62 797.39 2190.21 798.095 Q2189.82 798.8 2188.74 799.931 Q2187.66 801.062 2186.79 801.866 Q2185.92 802.669 2183.97 804.374 L2180.41 807.834 L2186.46 807.834 Q2189.41 807.834 2189.64 807.571 Q2189.97 807.096 2190.38 804.587 L2191.23 804.587 L2190.28 810.424 L2177.82 810.424 Z" fill="#000000" fill-rule="nonzero" fill-opacity="1" /><path clip-path="url(#clip660)" d="M2196.22 775.362 Q2196.22 767.257 2199.24 760.723 Q2200.53 757.982 2202.33 755.687 Q2204.13 753.391 2205.33 752.384 Q2206.52 751.377 2206.85 751.377 Q2207.32 751.377 2207.34 751.845 Q2207.34 752.08 2206.71 752.665 Q2198.98 760.535 2199 775.362 Q2199 790.235 2206.52 797.8 Q2207.34 798.62 2207.34 798.878 Q2207.34 799.346 2206.85 799.346 Q2206.52 799.346 2205.37 798.386 Q2204.23 797.425 2202.45 795.224 Q2200.67 793.022 2199.38 790.328 Q2196.22 783.794 2196.22 775.362 Z" fill="#000000" fill-rule="nonzero" fill-opacity="1" /><path clip-path="url(#clip660)" d="M2234.88 769.319 Q2234.88 770.63 2234.06 771.38 Q2233.24 772.106 2232.3 772.106 Q2231.41 772.106 2230.94 771.591 Q2230.47 771.075 2230.47 770.419 Q2230.47 769.529 2231.13 768.756 Q2231.78 767.983 2232.77 767.82 Q2231.81 767.211 2230.38 767.211 Q2229.44 767.211 2228.62 767.702 Q2227.82 768.194 2227.33 768.827 Q2226.86 769.459 2226.44 770.373 Q2226.04 771.263 2225.88 771.801 Q2225.74 772.317 2225.62 772.879 L2223.98 779.437 Q2223.19 782.552 2223.19 783.653 Q2223.19 785.012 2223.84 785.925 Q2224.5 786.815 2225.81 786.815 Q2226.33 786.815 2226.91 786.675 Q2227.5 786.511 2228.25 786.089 Q2229.02 785.644 2229.7 784.988 Q2230.4 784.309 2231.08 783.161 Q2231.76 782.014 2232.2 780.538 Q2232.35 780.023 2232.81 780.023 Q2233.4 780.023 2233.4 780.491 Q2233.4 780.889 2233.07 781.732 Q2232.77 782.552 2232.09 783.63 Q2231.43 784.684 2230.57 785.644 Q2229.7 786.581 2228.41 787.237 Q2227.12 787.893 2225.72 787.893 Q2223.7 787.893 2222.37 786.815 Q2221.03 785.738 2220.54 784.239 Q2220.42 784.449 2220.26 784.731 Q2220.1 785.012 2219.6 785.644 Q2219.14 786.253 2218.6 786.721 Q2218.06 787.166 2217.21 787.518 Q2216.39 787.893 2215.5 787.893 Q2214.38 787.893 2213.37 787.565 Q2212.39 787.237 2211.69 786.487 Q2210.98 785.738 2210.98 784.707 Q2210.98 783.559 2211.76 782.763 Q2212.55 781.943 2213.63 781.943 Q2214.31 781.943 2214.85 782.341 Q2215.41 782.74 2215.41 783.606 Q2215.41 784.567 2214.76 785.293 Q2214.1 786.019 2213.16 786.206 Q2214.12 786.815 2215.55 786.815 Q2217.1 786.815 2218.32 785.457 Q2219.53 784.098 2220.12 781.826 Q2221.57 776.369 2222.13 773.933 Q2222.7 771.473 2222.7 770.419 Q2222.7 769.436 2222.44 768.756 Q2222.18 768.077 2221.74 767.773 Q2221.31 767.445 2220.92 767.328 Q2220.54 767.211 2220.12 767.211 Q2219.42 767.211 2218.62 767.492 Q2217.85 767.773 2216.91 768.429 Q2216 769.061 2215.13 770.373 Q2214.26 771.684 2213.68 773.488 Q2213.56 774.026 2213.05 774.026 Q2212.48 774.003 2212.48 773.535 Q2212.48 773.136 2212.79 772.317 Q2213.12 771.473 2213.77 770.419 Q2214.45 769.365 2215.32 768.429 Q2216.21 767.468 2217.5 766.812 Q2218.81 766.157 2220.21 766.157 Q2220.85 766.157 2221.45 766.297 Q2222.09 766.414 2222.84 766.766 Q2223.61 767.117 2224.29 767.89 Q2224.97 768.663 2225.39 769.787 Q2225.67 769.248 2226.04 768.733 Q2226.44 768.218 2227.05 767.585 Q2227.68 766.929 2228.55 766.555 Q2229.44 766.157 2230.42 766.157 Q2231.39 766.157 2232.32 766.414 Q2233.26 766.648 2234.06 767.421 Q2234.88 768.171 2234.88 769.319 Z" fill="#000000" fill-rule="nonzero" fill-opacity="1" /><path clip-path="url(#clip660)" d="M2239.49 798.878 Q2239.49 798.643 2240.1 798.058 Q2247.83 790.188 2247.83 775.362 Q2247.83 760.488 2240.4 752.97 Q2239.49 752.103 2239.49 751.845 Q2239.49 751.377 2239.96 751.377 Q2240.28 751.377 2241.43 752.337 Q2242.6 753.298 2244.36 755.499 Q2246.14 757.701 2247.45 760.395 Q2250.61 766.929 2250.61 775.362 Q2250.61 783.466 2247.59 790.001 Q2246.3 792.741 2244.5 795.036 Q2242.7 797.332 2241.5 798.339 Q2240.31 799.346 2239.96 799.346 Q2239.49 799.346 2239.49 798.878 Z" fill="#000000" fill-rule="nonzero" fill-opacity="1" /><polyline clip-path="url(#clip660)" style="stroke:#00a9ad; stroke-linecap:round; stroke-linejoin:round; stroke-width:4; stroke-opacity:1; fill:none" points="1907.68,839.772 2049.96,839.772 "/>
<path clip-path="url(#clip660)" d="M2097.57 839.715 Q2097.57 841.027 2096.75 841.776 Q2095.93 842.502 2094.99 842.502 Q2094.1 842.502 2093.63 841.987 Q2093.16 841.472 2093.16 840.816 Q2093.16 839.926 2093.82 839.153 Q2094.48 838.38 2095.46 838.216 Q2094.5 837.607 2093.07 837.607 Q2092.13 837.607 2091.31 838.099 Q2090.52 838.591 2090.03 839.223 Q2089.56 839.856 2089.14 840.769 Q2088.74 841.659 2088.57 842.198 Q2088.43 842.713 2088.32 843.275 L2086.68 849.834 Q2085.88 852.949 2085.88 854.05 Q2085.88 855.408 2086.54 856.322 Q2087.19 857.212 2088.5 857.212 Q2089.02 857.212 2089.6 857.071 Q2090.19 856.907 2090.94 856.486 Q2091.71 856.04 2092.39 855.385 Q2093.09 854.705 2093.77 853.558 Q2094.45 852.41 2094.9 850.934 Q2095.04 850.419 2095.51 850.419 Q2096.09 850.419 2096.09 850.888 Q2096.09 851.286 2095.76 852.129 Q2095.46 852.949 2094.78 854.026 Q2094.12 855.08 2093.26 856.04 Q2092.39 856.977 2091.1 857.633 Q2089.81 858.289 2088.41 858.289 Q2086.39 858.289 2085.06 857.212 Q2083.72 856.134 2083.23 854.635 Q2083.12 854.846 2082.95 855.127 Q2082.79 855.408 2082.3 856.04 Q2081.83 856.649 2081.29 857.118 Q2080.75 857.563 2079.91 857.914 Q2079.09 858.289 2078.2 858.289 Q2077.07 858.289 2076.07 857.961 Q2075.08 857.633 2074.38 856.884 Q2073.68 856.134 2073.68 855.104 Q2073.68 853.956 2074.45 853.16 Q2075.25 852.34 2076.32 852.34 Q2077 852.34 2077.54 852.738 Q2078.1 853.136 2078.1 854.003 Q2078.1 854.963 2077.45 855.689 Q2076.79 856.415 2075.85 856.603 Q2076.82 857.212 2078.24 857.212 Q2079.79 857.212 2081.01 855.853 Q2082.23 854.495 2082.81 852.223 Q2084.26 846.765 2084.83 844.329 Q2085.39 841.87 2085.39 840.816 Q2085.39 839.832 2085.13 839.153 Q2084.87 838.474 2084.43 838.169 Q2084.01 837.841 2083.61 837.724 Q2083.23 837.607 2082.81 837.607 Q2082.11 837.607 2081.31 837.888 Q2080.54 838.169 2079.6 838.825 Q2078.69 839.457 2077.82 840.769 Q2076.96 842.081 2076.37 843.884 Q2076.25 844.423 2075.74 844.423 Q2075.18 844.4 2075.18 843.931 Q2075.18 843.533 2075.48 842.713 Q2075.81 841.87 2076.46 840.816 Q2077.14 839.762 2078.01 838.825 Q2078.9 837.865 2080.19 837.209 Q2081.5 836.553 2082.9 836.553 Q2083.54 836.553 2084.15 836.694 Q2084.78 836.811 2085.53 837.162 Q2086.3 837.513 2086.98 838.286 Q2087.66 839.059 2088.08 840.183 Q2088.36 839.645 2088.74 839.129 Q2089.14 838.614 2089.74 837.982 Q2090.38 837.326 2091.24 836.951 Q2092.13 836.553 2093.12 836.553 Q2094.08 836.553 2095.01 836.811 Q2095.95 837.045 2096.75 837.818 Q2097.57 838.567 2097.57 839.715 Z" fill="#000000" fill-rule="nonzero" fill-opacity="1" /><path clip-path="url(#clip660)" d="M2102.45 843.41 Q2102.45 842.804 2102.5 842.623 Q2102.57 842.443 2102.83 842.164 L2109.27 834.983 Q2112.8 831.015 2112.8 827.556 Q2112.8 825.31 2111.62 823.703 Q2110.45 822.096 2108.31 822.096 Q2106.83 822.096 2105.58 822.998 Q2104.34 823.9 2103.76 825.506 Q2103.86 825.474 2104.21 825.474 Q2105.04 825.474 2105.5 825.998 Q2105.98 826.523 2105.98 827.228 Q2105.98 828.13 2105.39 828.572 Q2104.81 828.999 2104.24 828.999 Q2104.01 828.999 2103.7 828.949 Q2103.4 828.9 2102.93 828.441 Q2102.45 827.966 2102.45 827.13 Q2102.45 824.785 2104.22 822.916 Q2106.01 821.047 2108.73 821.047 Q2111.81 821.047 2113.83 822.883 Q2115.86 824.703 2115.86 827.556 Q2115.86 828.556 2115.55 829.474 Q2115.26 830.376 2114.85 831.081 Q2114.45 831.786 2113.37 832.917 Q2112.29 834.049 2111.42 834.852 Q2110.55 835.655 2108.6 837.36 L2105.04 840.82 L2111.09 840.82 Q2114.04 840.82 2114.27 840.558 Q2114.6 840.082 2115.01 837.574 L2115.86 837.574 L2114.91 843.41 L2102.45 843.41 Z" fill="#000000" fill-rule="nonzero" fill-opacity="1" /><polyline clip-path="url(#clip660)" style="stroke:#ed5d92; stroke-linecap:round; stroke-linejoin:round; stroke-width:4; stroke-opacity:1; fill:none" points="1907.68,898.467 2049.96,898.467 "/>
<path clip-path="url(#clip660)" d="M2073.68 919.615 Q2073.68 918.748 2073.75 918.49 Q2073.84 918.233 2074.22 917.834 L2083.42 907.575 Q2088.46 901.907 2088.46 896.965 Q2088.46 893.756 2086.77 891.461 Q2085.11 889.165 2082.04 889.165 Q2079.93 889.165 2078.15 890.454 Q2076.37 891.742 2075.55 894.037 Q2075.69 893.99 2076.18 893.99 Q2077.38 893.99 2078.03 894.74 Q2078.71 895.489 2078.71 896.497 Q2078.71 897.785 2077.87 898.417 Q2077.05 899.026 2076.23 899.026 Q2075.9 899.026 2075.46 898.956 Q2075.03 898.886 2074.36 898.23 Q2073.68 897.551 2073.68 896.356 Q2073.68 893.007 2076.21 890.336 Q2078.76 887.666 2082.65 887.666 Q2087.05 887.666 2089.93 890.29 Q2092.84 892.89 2092.84 896.965 Q2092.84 898.394 2092.39 899.705 Q2091.97 900.994 2091.38 902.001 Q2090.82 903.008 2089.28 904.624 Q2087.73 906.24 2086.49 907.388 Q2085.25 908.536 2082.46 910.972 L2077.38 915.914 L2086.02 915.914 Q2090.24 915.914 2090.56 915.539 Q2091.03 914.86 2091.62 911.276 L2092.84 911.276 L2091.48 919.615 L2073.68 919.615 Z" fill="#000000" fill-rule="nonzero" fill-opacity="1" /><path clip-path="url(#clip660)" d="M2114.49 879.384 Q2114.49 880.302 2113.91 880.827 Q2113.34 881.335 2112.69 881.335 Q2112.06 881.335 2111.73 880.974 Q2111.41 880.614 2111.41 880.155 Q2111.41 879.532 2111.87 878.991 Q2112.32 878.45 2113.01 878.335 Q2112.34 877.908 2111.34 877.908 Q2110.68 877.908 2110.11 878.253 Q2109.55 878.597 2109.21 879.04 Q2108.88 879.482 2108.59 880.122 Q2108.31 880.745 2108.19 881.122 Q2108.09 881.483 2108.01 881.876 L2106.86 886.467 Q2106.31 888.648 2106.31 889.418 Q2106.31 890.369 2106.77 891.009 Q2107.23 891.632 2108.14 891.632 Q2108.5 891.632 2108.91 891.533 Q2109.32 891.419 2109.85 891.123 Q2110.39 890.812 2110.87 890.353 Q2111.36 889.877 2111.83 889.074 Q2112.31 888.271 2112.62 887.238 Q2112.72 886.877 2113.05 886.877 Q2113.46 886.877 2113.46 887.205 Q2113.46 887.484 2113.23 888.074 Q2113.01 888.648 2112.54 889.402 Q2112.08 890.14 2111.47 890.812 Q2110.87 891.468 2109.96 891.927 Q2109.06 892.386 2108.08 892.386 Q2106.67 892.386 2105.73 891.632 Q2104.8 890.877 2104.45 889.828 Q2104.37 889.976 2104.26 890.172 Q2104.14 890.369 2103.8 890.812 Q2103.47 891.238 2103.09 891.566 Q2102.72 891.878 2102.13 892.124 Q2101.55 892.386 2100.93 892.386 Q2100.14 892.386 2099.44 892.156 Q2098.75 891.927 2098.26 891.402 Q2097.77 890.877 2097.77 890.156 Q2097.77 889.353 2098.31 888.795 Q2098.86 888.221 2099.62 888.221 Q2100.09 888.221 2100.47 888.5 Q2100.86 888.779 2100.86 889.385 Q2100.86 890.058 2100.4 890.566 Q2099.95 891.074 2099.29 891.205 Q2099.96 891.632 2100.96 891.632 Q2102.04 891.632 2102.9 890.681 Q2103.75 889.73 2104.16 888.139 Q2105.18 884.319 2105.57 882.614 Q2105.96 880.892 2105.96 880.155 Q2105.96 879.466 2105.78 878.991 Q2105.6 878.515 2105.29 878.302 Q2105 878.072 2104.72 877.99 Q2104.45 877.908 2104.16 877.908 Q2103.67 877.908 2103.11 878.105 Q2102.57 878.302 2101.91 878.761 Q2101.27 879.204 2100.67 880.122 Q2100.06 881.04 2099.65 882.302 Q2099.57 882.68 2099.21 882.68 Q2098.81 882.663 2098.81 882.335 Q2098.81 882.057 2099.03 881.483 Q2099.26 880.892 2099.72 880.155 Q2100.19 879.417 2100.8 878.761 Q2101.42 878.089 2102.32 877.63 Q2103.24 877.171 2104.23 877.171 Q2104.67 877.171 2105.09 877.269 Q2105.54 877.351 2106.06 877.597 Q2106.6 877.843 2107.08 878.384 Q2107.55 878.925 2107.85 879.712 Q2108.05 879.335 2108.31 878.974 Q2108.59 878.613 2109.01 878.171 Q2109.46 877.712 2110.06 877.449 Q2110.68 877.171 2111.37 877.171 Q2112.05 877.171 2112.7 877.351 Q2113.36 877.515 2113.91 878.056 Q2114.49 878.581 2114.49 879.384 Z" fill="#000000" fill-rule="nonzero" fill-opacity="1" /><polyline clip-path="url(#clip660)" style="stroke:#c68125; stroke-linecap:round; stroke-linejoin:round; stroke-width:4; stroke-opacity:1; fill:none" points="1907.68,957.162 2049.96,957.162 "/>
<path clip-path="url(#clip660)" d="M2097.57 955.862 Q2097.57 957.173 2096.75 957.923 Q2095.93 958.649 2094.99 958.649 Q2094.1 958.649 2093.63 958.134 Q2093.16 957.618 2093.16 956.962 Q2093.16 956.072 2093.82 955.299 Q2094.48 954.526 2095.46 954.362 Q2094.5 953.754 2093.07 953.754 Q2092.13 953.754 2091.31 954.245 Q2090.52 954.737 2090.03 955.37 Q2089.56 956.002 2089.14 956.916 Q2088.74 957.806 2088.57 958.344 Q2088.43 958.86 2088.32 959.422 L2086.68 965.98 Q2085.88 969.095 2085.88 970.196 Q2085.88 971.555 2086.54 972.468 Q2087.19 973.358 2088.5 973.358 Q2089.02 973.358 2089.6 973.218 Q2090.19 973.054 2090.94 972.632 Q2091.71 972.187 2092.39 971.531 Q2093.09 970.852 2093.77 969.704 Q2094.45 968.556 2094.9 967.081 Q2095.04 966.566 2095.51 966.566 Q2096.09 966.566 2096.09 967.034 Q2096.09 967.432 2095.76 968.275 Q2095.46 969.095 2094.78 970.173 Q2094.12 971.227 2093.26 972.187 Q2092.39 973.124 2091.1 973.78 Q2089.81 974.436 2088.41 974.436 Q2086.39 974.436 2085.06 973.358 Q2083.72 972.281 2083.23 970.782 Q2083.12 970.992 2082.95 971.273 Q2082.79 971.555 2082.3 972.187 Q2081.83 972.796 2081.29 973.264 Q2080.75 973.709 2079.91 974.061 Q2079.09 974.436 2078.2 974.436 Q2077.07 974.436 2076.07 974.108 Q2075.08 973.78 2074.38 973.03 Q2073.68 972.281 2073.68 971.25 Q2073.68 970.102 2074.45 969.306 Q2075.25 968.486 2076.32 968.486 Q2077 968.486 2077.54 968.884 Q2078.1 969.283 2078.1 970.149 Q2078.1 971.11 2077.45 971.836 Q2076.79 972.562 2075.85 972.749 Q2076.82 973.358 2078.24 973.358 Q2079.79 973.358 2081.01 972 Q2082.23 970.641 2082.81 968.369 Q2084.26 962.912 2084.83 960.476 Q2085.39 958.016 2085.39 956.962 Q2085.39 955.979 2085.13 955.299 Q2084.87 954.62 2084.43 954.316 Q2084.01 953.988 2083.61 953.871 Q2083.23 953.754 2082.81 953.754 Q2082.11 953.754 2081.31 954.035 Q2080.54 954.316 2079.6 954.971 Q2078.69 955.604 2077.82 956.916 Q2076.96 958.227 2076.37 960.031 Q2076.25 960.569 2075.74 960.569 Q2075.18 960.546 2075.18 960.078 Q2075.18 959.679 2075.48 958.86 Q2075.81 958.016 2076.46 956.962 Q2077.14 955.908 2078.01 954.971 Q2078.9 954.011 2080.19 953.355 Q2081.5 952.699 2082.9 952.699 Q2083.54 952.699 2084.15 952.84 Q2084.78 952.957 2085.53 953.308 Q2086.3 953.66 2086.98 954.433 Q2087.66 955.206 2088.08 956.33 Q2088.36 955.791 2088.74 955.276 Q2089.14 954.761 2089.74 954.128 Q2090.38 953.472 2091.24 953.098 Q2092.13 952.699 2093.12 952.699 Q2094.08 952.699 2095.01 952.957 Q2095.95 953.191 2096.75 953.964 Q2097.57 954.714 2097.57 955.862 Z" fill="#000000" fill-rule="nonzero" fill-opacity="1" /><path clip-path="url(#clip660)" d="M2100.84 971.344 Q2100.84 970.243 2101.61 969.54 Q2102.38 968.814 2103.39 968.814 Q2104.4 968.814 2105.12 969.54 Q2105.87 970.243 2105.87 971.344 Q2105.87 972.398 2105.1 973.124 Q2104.35 973.85 2103.39 973.85 Q2102.29 973.85 2101.56 973.1 Q2100.84 972.351 2100.84 971.344 M2100.84 942.042 Q2100.84 940.895 2101.61 940.239 Q2102.38 939.56 2103.39 939.56 Q2104.4 939.56 2105.15 940.239 Q2105.92 940.895 2105.92 942.042 Q2105.92 942.136 2105.9 942.323 Q2105.87 942.487 2105.87 942.581 L2104.04 963.778 Q2103.95 964.879 2103.34 964.879 Q2102.8 964.879 2102.71 963.591 L2100.88 942.722 Q2100.88 942.628 2100.86 942.394 Q2100.84 942.136 2100.84 942.042 Z" fill="#000000" fill-rule="nonzero" fill-opacity="1" /></svg>
